<?xml version="1.0" encoding="utf-8" ?><svg xmlns="http://www.w3.org/2000/svg" xmlns:xlink="http://www.w3.org/1999/xlink" width="579" height="521" viewBox="0 0 579 521"><path fill="#F47627" d="M108.473 95.9934C111.337 92.8501 114.175 89.6798 117.051 86.5481C124.152 78.8143 132.143 71.5865 140.276 64.9412C179.252 33.6582 227.218 15.6702 277.155 13.6096C336.872 10.9342 399.749 32.3288 443.969 72.8904C452.064 80.4032 459.695 88.4017 466.818 96.8416C480.994 112.493 490.761 129.709 499.808 148.676C501.217 151.629 504.797 158.222 504.854 161.317C503.827 162.997 498.752 165.899 496.912 167.021C479.041 177.923 456.186 186.547 435.76 191.45C392.936 201.665 348.053 199.053 306.704 183.94C292.753 178.758 279.065 172.577 265.116 167.409C257.985 164.767 249.814 162.438 242.427 160.442C202.712 149.709 163.635 151.067 123.91 160.979C121.532 161.546 118.225 162.96 115.791 163.736C96.2835 169.957 74.034 181.495 58.6712 194.99C59.4582 191.027 61.2473 185.865 62.4257 181.88C69.4187 158.234 79.6625 135.986 93.3675 115.466C98.1356 108.327 102.365 102.092 108.473 95.9934Z"/><defs><linearGradient id="gradient_0" gradientUnits="userSpaceOnUse" x1="301.64325" y1="206.58788" x2="339.20056" y2="64.572533"><stop offset="0" stop-color="#E23F4B"/><stop offset="1" stop-color="#DB726F"/></linearGradient></defs><path fill="url(#gradient_0)" d="M348.645 100.274C375.033 90.8441 410.01 89.927 437.917 93.0168C442.354 93.508 447.629 94.5515 452.063 95.4361C455.891 96.1999 459.979 97.4689 463.896 97.9655C465.292 98.1425 465.817 97.7279 466.818 96.8416C480.994 112.493 490.761 129.709 499.808 148.676C501.217 151.629 504.797 158.222 504.854 161.317C503.827 162.997 498.752 165.899 496.912 167.021C479.041 177.923 456.186 186.547 435.76 191.45C392.936 201.665 348.053 199.053 306.704 183.94C292.753 178.758 279.065 172.577 265.116 167.409C257.985 164.767 249.814 162.438 242.427 160.442C202.712 149.709 163.635 151.067 123.91 160.979L123.882 160.004C125.059 157.728 136.427 152.08 139.292 150.69C159.397 140.843 180.601 134.858 202.99 133.573C221.848 132.625 239.393 135.541 258.261 133.366C273.216 132.357 286.768 129.543 301.113 125.372C319.448 120.039 331.991 108.968 348.645 100.274Z"/><path fill="#F6955E" d="M108.473 95.9934C109.423 96.7087 109.73 97.1741 111.043 96.9239C114.278 96.3077 117.773 94.6991 120.845 93.4605C125.465 91.5731 130.101 89.7265 134.753 87.9209C147.517 83.1856 160.761 79.8604 174.248 78.0047C203.259 74.0271 233.834 77.1479 261.842 85.7181C272.154 88.8736 282.05 92.8182 292.626 95.0817C296.353 95.8792 300.006 96.6859 303.751 97.3903C313.04 99.099 322.463 99.9762 331.908 100.012C336.627 100.069 344.233 99.7366 348.645 100.274C331.991 108.968 319.448 120.039 301.113 125.372C286.768 129.543 273.216 132.357 258.261 133.366C239.393 135.541 221.848 132.625 202.99 133.573C180.601 134.858 159.397 140.843 139.292 150.69C136.427 152.08 125.059 157.728 123.882 160.004L123.91 160.979C121.532 161.546 118.225 162.96 115.791 163.736C96.2835 169.957 74.034 181.495 58.6712 194.99C59.4582 191.027 61.2473 185.865 62.4257 181.88C69.4187 158.234 79.6625 135.986 93.3675 115.466C98.1356 108.327 102.365 102.092 108.473 95.9934Z"/><defs><linearGradient id="gradient_1" gradientUnits="userSpaceOnUse" x1="113.33269" y1="401.83212" x2="454.55753" y2="457.16663"><stop offset="0" stop-color="#603B81"/><stop offset="1" stop-color="#354BA0"/></linearGradient></defs><path fill="url(#gradient_1)" d="M67.9158 334.094C79.9665 327.595 91.8558 320.904 104.649 315.988C150.243 298.47 201.542 297.009 248.208 311.222C268.648 317.448 288.318 326.527 308.626 333.436C354.621 349.084 397.531 350.366 444.293 339.092C464.271 333.458 479.947 327.389 497.665 316.415C503.388 312.871 511.944 306.492 517.042 303.652C513.505 312.644 511.099 321.854 507.724 330.689C498.697 354.317 482.672 384.178 465.009 402.371C453.344 415.075 443.974 424.478 430.26 435.249C395.077 462.881 346.647 481.392 301.778 483.356C288.334 484.042 274.857 483.695 261.466 482.318C211.258 476.655 164.178 455.078 127.114 420.741C123.248 417.183 115.126 409.269 111.61 405.303C95.6808 389.608 76.6123 357.343 68.799 336.904C68.285 335.766 68.1934 335.322 67.9158 334.094Z"/><defs><linearGradient id="gradient_2" gradientUnits="userSpaceOnUse" x1="82.382111" y1="287.33569" x2="429.7457" y2="388.25241"><stop offset="0" stop-color="#6D3980"/><stop offset="1" stop-color="#4760AF"/></linearGradient></defs><path fill="url(#gradient_2)" d="M67.9158 334.094C79.9665 327.595 91.8558 320.904 104.649 315.988C150.243 298.47 201.542 297.009 248.208 311.222C268.648 317.448 288.318 326.527 308.626 333.436C354.621 349.084 397.531 350.366 444.293 339.092C444.084 340.745 444.509 341.429 442.816 342.558C436.605 346.699 428.742 350.732 422.015 353.875C399.712 364.155 375.44 369.465 350.881 369.438C342.979 369.47 334.546 368.867 326.543 368.755C314.851 368.555 303.161 369.244 291.573 370.816C281.342 372.188 270.851 374.881 261.207 378.617C258.517 379.659 251.812 383.524 249.59 384.028C244.188 386.822 238.728 390.573 233.563 393.836C231.837 394.927 227.032 397.98 225.747 399.183C197.131 407.725 175.115 411.213 145.131 408.746C141.458 408.42 137.797 407.97 134.154 407.397C128.301 406.49 118.855 404.519 112.697 404.064C112.26 404.031 111.822 404.936 111.61 405.303C95.6808 389.608 76.6123 357.343 68.799 336.904C68.285 335.766 68.1934 335.322 67.9158 334.094Z"/><path fill="#945090" d="M68.799 336.904C70.6975 336.23 81.466 335.402 84.0576 335.132C123.381 331.31 163.009 338.113 198.805 354.832C212.389 361.379 225.592 368.689 238.351 376.727C240.849 378.28 247.5 382.242 249.59 384.028C244.188 386.822 238.728 390.573 233.563 393.836C231.837 394.927 227.032 397.98 225.747 399.183C197.131 407.725 175.115 411.213 145.131 408.746C141.458 408.42 137.797 407.97 134.154 407.397C128.301 406.49 118.855 404.519 112.697 404.064C112.26 404.031 111.822 404.936 111.61 405.303C95.6808 389.608 76.6123 357.343 68.799 336.904Z"/><defs><linearGradient id="gradient_3" gradientUnits="userSpaceOnUse" x1="245.96648" y1="441.01718" x2="520.99463" y2="320.83984"><stop offset="0" stop-color="#7579B2"/><stop offset="1" stop-color="#4D92CC"/></linearGradient></defs><path fill="url(#gradient_3)" d="M444.293 339.092C464.271 333.458 479.947 327.389 497.665 316.415C503.388 312.871 511.944 306.492 517.042 303.652C513.505 312.644 511.099 321.854 507.724 330.689C498.697 354.317 482.672 384.178 465.009 402.371C464.751 402.18 464.045 401.806 463.83 401.857C460.119 402.753 455.682 405.054 452.335 406.643C429.91 417.317 405.542 423.303 380.722 424.236C360.007 425.13 339.287 422.574 319.409 416.674C301.857 411.323 285.951 404.587 267.683 401.363C252.806 398.738 240.637 398.925 225.747 399.183C227.032 397.98 231.837 394.927 233.563 393.836C238.728 390.573 244.188 386.822 249.59 384.028C251.812 383.524 258.517 379.659 261.207 378.617C270.851 374.881 281.342 372.188 291.573 370.816C303.161 369.244 314.851 368.555 326.543 368.755C334.546 368.867 342.979 369.47 350.881 369.438C375.44 369.465 399.712 364.155 422.015 353.875C428.742 350.732 436.605 346.699 442.816 342.558C444.509 341.429 444.084 340.745 444.293 339.092Z"/><path fill="#482C60" d="M302.668 228.233C303.609 228.189 304.55 228.161 305.492 228.147C311.109 228.098 314.979 230.697 318.834 234.492C318.912 232.766 319.154 230.831 319.334 229.093C322.253 228.914 326.213 229.023 329.211 229.027C329.529 235.427 329.389 243.087 329.326 249.535C329.243 258.041 330.298 272.367 326.476 279.833C324.109 284.429 319.995 287.883 315.058 289.419C306.246 292.251 296.544 290.368 288.47 286.211L289.472 283.152C290.109 281.204 290.813 279.279 291.584 277.38C295.01 279.188 300.116 280.751 303.991 280.967C315.01 281.582 316.704 275.442 316.988 266.417C309.639 271.739 301.625 274.313 293.588 268.444C289.221 265.28 286.315 260.488 285.529 255.153C283.502 241.833 288.281 230.141 302.668 228.233ZM307.915 262.188C311.725 261.19 313.572 260.154 316.688 257.679C316.678 252.382 316.602 246.907 316.664 241.623C313.384 239.573 310.382 237.825 306.377 237.736C300.495 239.969 297.37 243.319 297.097 249.858C296.804 256.905 300.843 261.627 307.915 262.188Z"/><path fill="#482C60" d="M516.008 209.239L527.841 209.176C527.723 229.532 527.365 252.06 527.811 272.287C524.417 272.227 520.952 272.247 517.552 272.231C517.254 270.436 517.108 268.702 516.937 266.892C515.362 268.692 513.485 270.205 511.391 271.361C506.543 274.061 501.913 274.089 496.668 272.573C472.792 263.862 484.574 212.419 515.817 232.341C515.368 227.7 515.721 214.008 516.008 209.239ZM507.518 263.386C510.921 262.842 512.892 261.414 515.718 259.474C515.699 253.86 515.565 247.691 515.697 242.117C511.57 239.371 509.417 237.999 504.298 238.292C502.682 239.041 501.025 239.761 499.806 241.098C493.138 248.411 495.42 263.922 507.518 263.386Z"/><path fill="#482C60" d="M175.442 235.32C175.765 234.95 176.092 234.584 176.424 234.223C184.526 225.448 201.001 224.944 204.102 238.616C205.186 243.397 204.89 249.792 204.946 254.813L205.205 272.538C201.407 272.414 197.176 272.506 193.345 272.511C193.073 265.266 194.638 246.872 191.406 241.134C190.624 239.746 189.48 238.567 187.896 238.162C184.217 237.22 180.261 240.539 177.348 242.406C177.546 250.654 177.424 259.405 177.448 267.693L177.421 272.525C173.545 272.424 169.325 272.503 165.422 272.499C165.392 265.041 165.764 257.512 165.478 250.066C165.266 244.55 165.219 240.129 159.558 237.842C154.931 238.496 153.27 239.585 149.513 242.119L149.544 272.523C145.612 272.422 141.394 272.509 137.439 272.523L137.348 229.032C140.891 228.98 144.554 228.869 148.08 229.041C148.254 231.321 148.378 232.769 148.24 235.03C153.003 230.526 155.789 228.955 162.185 228.242C163.701 228.173 165.22 228.3 166.703 228.621C170.609 229.5 173.38 232.001 175.442 235.32Z"/><path fill="#482C60" d="M57.891 227.691C70.6224 226.021 82.2878 235.013 83.9124 247.749C85.5369 260.485 76.5021 272.117 63.759 273.695C51.081 275.265 39.5205 266.288 37.9043 253.616C36.288 240.945 45.2247 229.353 57.891 227.691ZM63.3419 264.206C66.7827 262.522 70.0483 260.2 71.0692 256.315C73.7172 246.239 70.0238 236.697 58.3184 237.485C54.9154 238.984 52.5218 240.728 51.1702 244.402C47.8517 253.424 51.4678 265.981 63.3419 264.206Z"/><path fill="#482C60" d="M406.768 227.693C419.457 225.894 431.197 234.734 432.974 247.425C434.751 260.115 425.891 271.839 413.196 273.595C400.532 275.346 388.842 266.512 387.069 253.852C385.296 241.192 394.11 229.488 406.768 227.693ZM412.668 264.256C420.997 260.261 422.864 251.483 419.411 243.136C417.42 238.324 411.888 237.148 407.105 237.504C398.857 241.518 397.063 250.17 400.62 258.372C402.731 263.241 407.76 264.513 412.668 264.256Z"/><path fill="#482C60" d="M456.039 228.228C456.737 228.194 457.435 228.172 458.133 228.161C477.775 227.753 476.992 243.249 476.946 258.154L476.983 272.514L466.53 272.475C466.3 270.529 466.234 269.553 466.254 267.597C458.865 274.898 449.425 275.667 441.23 269.207C438.605 266.638 438.013 264.307 438.082 260.709C438.359 246.319 454.042 244.707 465.077 247.095C464.89 245.522 464.714 243.72 464.159 242.244C461.031 233.92 450.556 238.157 444.808 240.577C443.705 237.66 442.382 234.832 440.85 232.116C446.473 230.003 449.976 228.973 456.039 228.228ZM458.663 264.523C461.265 263.483 462.795 262.363 465.026 260.666L465.025 254.828C462.079 254.449 459.13 254.002 456.164 253.926C445.3 256.191 449.43 265.623 458.663 264.523Z"/><path fill="#482C60" d="M108.456 228.261C113.803 228.07 119.226 229.031 123.124 232.974C124.983 234.889 126.309 237.257 126.972 239.842C128.529 245.685 127.878 265.312 127.773 272.567C124.52 272.46 120.935 272.521 117.656 272.514C117.481 270.563 117.491 269.6 117.579 267.634C110.192 274.204 99.5732 276.35 91.9464 268.977C91.8136 268.825 91.6837 268.67 91.5568 268.513C89.4959 265.942 88.9491 263.005 89.0909 259.801C89.4404 251.906 95.271 247.76 102.54 246.634C107.315 245.893 111.193 246.448 115.927 247.024C115.59 245.011 115.395 242.38 115.184 240.308C108.084 235.59 103.42 237.629 95.9619 240.433C94.6707 238.061 93.4048 234.845 92.1663 232.294C98.9247 229.888 100.89 228.702 108.456 228.261ZM109.402 264.508C112.384 263.591 113.228 262.918 115.804 261.058C115.75 258.919 115.666 256.935 115.845 254.793C113.171 254.434 110.408 253.991 107.719 253.949C105.331 254.325 103.17 254.549 101.602 256.696C100.882 257.663 100.607 258.891 100.846 260.073C101.623 264.096 106.026 264.722 109.402 264.508Z"/><path fill="#482C60" d="M262.209 228.241C278.816 227.686 277.672 243.437 277.659 255.184L277.637 272.543C273.866 272.389 269.398 272.498 265.574 272.496C266.09 263.274 267.326 249.806 263.725 241.247C261.212 235.276 254.772 238.586 250.946 240.956L250.009 241.729C248.963 244.05 249.4 268.09 249.417 272.59C245.478 272.42 241.339 272.509 237.394 272.554C237.465 258.047 237.452 243.539 237.354 229.032C240.867 229.064 244.379 229.052 247.891 228.994C248.082 231.192 248.209 232.884 248.209 235.082C253.212 230.751 255.539 228.96 262.209 228.241Z"/><path fill="#482C60" d="M550.792 228.507C557.235 228.26 560.21 229.247 566.206 231.494C565.566 234.313 564.959 237.14 564.386 239.973C557.83 237.368 551.625 234.996 545.722 240.381C549.791 244.656 554.811 245.39 560.137 248.157C567.522 251.992 570.247 258.863 565.895 266.306C563.307 270.732 557.395 272.322 552.571 273.3C545.945 273.424 542.125 272.209 536.121 269.92C536.501 266.942 537.236 263.672 537.832 260.704C543.89 263.275 548.249 264.749 554.861 263.653C555.587 262.765 556.565 261.18 557.225 260.18C552.238 255.642 546.46 255.07 540.76 251.427C535.126 247.826 534.31 239.795 537.916 234.459C540.525 230.6 546.363 229.212 550.792 228.507Z"/><path fill="#482C60" d="M381.687 228.263L382.356 228.36C383.054 229.393 382.8 237.168 382.817 239.191C373.34 239.779 368.613 241.165 368.818 251.915C368.947 258.66 368.896 265.73 368.985 272.509C365.413 272.551 360.992 272.69 357.52 272.167C357.371 270.739 357.353 269.221 357.303 267.779C357.313 254.971 357.452 241.785 357.213 229.004L367.574 229.001C367.842 231.646 368.028 233.728 368.08 236.411C372.033 230.013 374.171 228.765 381.687 228.263Z"/><path fill="#482C60" d="M30.1384 228.509L33.8572 228.307C33.6608 230.86 33.7311 236.447 33.8796 239.037C32.9625 239.106 32.0459 239.181 31.1298 239.261C25.7497 239.738 23.7647 240.888 20.3403 244.976C19.5958 253.375 19.9884 264.033 20.1137 272.538C17.6554 272.448 10.0297 272.982 8.58296 272.02L8.39687 270.882C8.10713 257.245 8.31818 242.751 8.38763 229.068C11.5554 229.162 15.6154 229.351 18.6981 228.925C18.8419 231.566 18.9603 233.873 18.9256 236.532C22.3798 231.264 23.6804 229.545 30.1384 228.509Z"/><path fill="#482C60" d="M214.955 229.288C218.765 229.198 222.845 229.264 226.676 229.255C226.325 243.11 226.591 258.406 226.541 272.392C223.098 272.584 218.401 272.467 214.861 272.486C214.743 258.567 214.488 243.109 214.955 229.288Z"/><path fill="#482C60" d="M219.802 208.992C222.779 208.974 225.718 209.626 227.061 212.623C227.685 214.02 227.713 215.61 227.139 217.028C226.152 219.487 224.39 220.347 222.167 221.34C220.651 221.431 219.295 221.342 217.92 220.621C216.222 219.751 214.973 218.201 214.485 216.356C213.437 212.332 216.081 209.785 219.802 208.992Z"/></svg>