<?xml version="1.0" encoding="utf-8"?>
<svg xmlns="http://www.w3.org/2000/svg" viewBox="0 0 579 521">
  <!-- Monochrome mask icon derived from the color logo. Keep it simple for Safari pinned tabs. -->
  <rect width="579" height="521" fill="none" />
  <path fill="#000" d="M108.075 96.6192C115.974 87.9534 123.274 79.8919 132.1 72.0797C172.308 36.5263 223.552 15.9324 277.183 13.7741C335.842 11.0093 399.496 32.2106 443.016 72.0095C451.97 80.1985 459.462 88.3167 467.303 97.5713C481.783 112.509 492.198 133.189 501.241 151.744C502.778 154.896 503.935 158.322 505.4 161.327C504.244 162.121 502.82 163.161 501.656 163.886C484.289 175.9 459.69 185.052 439.295 190.425C395.672 201.73 349.643 199.521 307.303 184.089C286.618 176.57 269.694 168.173 248.189 161.937C207.533 150.294 164.469 149.971 123.643 161.003C98.4094 167.971 79.1274 179.411 58.3923 194.882C59.5204 191.959 60.7079 187.608 61.6538 184.53C63.3785 178.814 65.2432 173.141 67.2465 167.516C74.3151 147.999 83.8524 129.468 95.6261 112.373C99.619 106.548 103.054 101.608 108.075 96.6192Z" />
</svg>
