<?xml version="1.0" encoding="utf-8" ?>
<svg xmlns="http://www.w3.org/2000/svg"
    xmlns:xlink="http://www.w3.org/1999/xlink" width="579" height="521" viewBox="0 0 579 521">
    <path fill="none" d="M0 0L579 0L579 521L0 521L0 0Z" />
    <path fill="#F37425"
        d="M107.4 97.448C114.638 89.1685 122.041 81.1814 130.186 73.8011C177.862 30.599 242.283 8.76114 306.422 14.3691C355.229 18.6365 402.611 36.5204 439.728 69.0437C450.008 78.0652 459.507 87.9406 468.121 98.5641C481.769 113.452 494.097 136.179 502.344 154.408C503.389 156.717 504.129 159.068 505.104 161.298C504.34 161.844 502.894 162.948 502.131 163.353C490.908 171.243 477.698 177.285 464.924 182.175C417.162 200.804 364.448 202.451 315.616 186.839C297.225 180.971 279.648 172.54 261.516 166.022C247.46 160.97 231.441 157.253 216.684 155.013C190.276 151.005 162.97 152.37 136.86 157.784C131.97 158.798 126.96 160.165 122.055 161.286C121.438 161.6 118.524 162.408 117.642 162.732C114.113 164.028 109.406 165.099 105.992 166.599C88.9036 174.104 73.317 182.45 58.9321 194.293C61.36 186.2 64.0765 176.765 66.9508 168.834C74.4544 148.131 84.8563 127.271 97.8094 109.463C100.217 106.153 104.648 100.092 107.4 97.448Z" />
    <path fill="#DF4B55"
        d="M349.904 99.8653C370.371 92.767 404.673 90.4097 426.485 92.1429C435.757 92.7795 444.693 93.9623 453.803 95.8406C456.79 96.4565 465.885 99.484 468.121 98.5641C481.769 113.452 494.097 136.179 502.344 154.408C503.389 156.717 504.129 159.068 505.104 161.298C504.34 161.844 502.894 162.948 502.131 163.353C490.908 171.243 477.698 177.285 464.924 182.175C417.162 200.804 364.448 202.451 315.616 186.839C297.225 180.971 279.648 172.54 261.516 166.022C247.46 160.97 231.441 157.253 216.684 155.013C190.276 151.005 162.97 152.37 136.86 157.784C131.97 158.798 126.96 160.165 122.055 161.286C121.903 160.981 121.955 160.973 121.933 160.598C124.206 158.5 138.134 151.253 141.31 149.667C159.858 140.543 179.987 135.07 200.602 133.544C209.553 132.903 217.757 133.172 226.692 133.543C231.442 133.533 237.028 134.554 241.698 134.356C266.691 133.298 296.489 129.659 318.919 118.203C326.4 113.997 332.627 109.697 339.749 105.036C341.718 103.748 347.488 101.079 349.904 99.8653Z" />
    <path fill="#DC6768"
        d="M349.904 99.8653C370.371 92.767 404.673 90.4097 426.485 92.1429C435.757 92.7795 444.693 93.9623 453.803 95.8406C456.79 96.4565 465.885 99.484 468.121 98.5641C481.769 113.452 494.097 136.179 502.344 154.408C503.389 156.717 504.129 159.068 505.104 161.298C504.34 161.844 502.894 162.948 502.131 163.353C501.408 162.708 500.688 162.048 499.685 162.134C497.299 162.338 494.815 162.703 492.442 162.999C488.182 163.504 483.919 163.986 479.654 164.444C467.378 165.77 454.177 166.383 442.004 166.017C405.292 164.911 371.214 151.81 340.306 132.634C333.783 128.586 324.15 123.843 318.919 118.203C326.4 113.997 332.627 109.697 339.749 105.036C341.718 103.748 347.488 101.079 349.904 99.8653Z" />
    <path fill="#F6945C"
        d="M107.4 97.448C108.128 97.8764 108.333 98.1641 109.255 97.9117C117.126 95.7578 124.691 91.6909 132.185 88.8091C143.637 84.405 156.308 80.9287 168.374 78.9098C196.944 74.0392 226.24 75.5835 254.14 83.4308C260.38 85.207 266.918 87.5544 273.184 89.4834C284.838 93.1262 296.706 96.0486 308.719 98.2341C317.446 99.7457 326.732 99.9792 335.58 100.025C340.252 100.049 345.278 99.6598 349.904 99.8653C347.488 101.079 341.718 103.748 339.749 105.036C332.627 109.697 326.4 113.997 318.919 118.203C296.489 129.659 266.691 133.298 241.698 134.356C237.028 134.554 231.442 133.533 226.692 133.543C217.757 133.172 209.553 132.903 200.602 133.544C179.987 135.07 159.858 140.543 141.31 149.667C138.134 151.253 124.206 158.5 121.933 160.598C121.955 160.973 121.903 160.981 122.055 161.286C121.438 161.6 118.524 162.408 117.642 162.732C114.113 164.028 109.406 165.099 105.992 166.599C88.9036 174.104 73.317 182.45 58.9321 194.293C61.36 186.2 64.0765 176.765 66.9508 168.834C74.4544 148.131 84.8563 127.271 97.8094 109.463C100.217 106.153 104.648 100.092 107.4 97.448Z" />
    <defs>
        <linearGradient id="gradient_0" gradientUnits="userSpaceOnUse" x1="110.28451" y1="424.3652" x2="461.00485"
            y2="448.55746">
            <stop offset="0" stop-color="#603981" />
            <stop offset="1" stop-color="#344B9E" />
        </linearGradient>
    </defs>
    <path fill="url(#gradient_0)"
        d="M67.952 334.422C78.4393 328.723 84.3553 324.916 95.6893 319.973C133.79 303.406 175.786 297.898 216.871 304.078C241.448 308.006 264.664 316.084 287.535 325.644C292.983 327.922 298.565 330.096 304.117 332.103C338.186 344.581 374.654 349.12 410.743 345.377C421.914 344.162 433.857 341.823 444.759 339.298C469.778 333.047 495.929 319.738 516.364 304.083C507.278 335.425 494.978 363.426 475.393 389.758C473.922 391.735 467.507 400.258 465.625 401.475C425.554 448.867 368.191 478.265 306.316 483.12C232.874 489.457 159.323 459.004 110.571 404.029C108.437 402.41 102.424 394.537 100.752 392.285C88.8523 376.253 76.1294 355.855 69.0733 337.046L67.952 334.422Z" />
    <defs>
        <linearGradient id="gradient_1" gradientUnits="userSpaceOnUse" x1="75.075241" y1="306.013" x2="436.12958"
            y2="379.83755">
            <stop offset="0" stop-color="#6B3780" />
            <stop offset="1" stop-color="#4760AE" />
        </linearGradient>
    </defs>
    <path fill="url(#gradient_1)"
        d="M67.952 334.422C78.4393 328.723 84.3553 324.916 95.6893 319.973C133.79 303.406 175.786 297.898 216.871 304.078C241.448 308.006 264.664 316.084 287.535 325.644C292.983 327.922 298.565 330.096 304.117 332.103C338.186 344.581 374.654 349.12 410.743 345.377C421.914 344.162 433.857 341.823 444.759 339.298C444.799 340.08 444.961 340.728 444.315 341.363C441.766 343.872 437.157 345.849 434.084 347.6C410.583 360.991 385.192 368.048 358.178 369.233C347.014 369.724 337.253 368.793 326.35 368.606C311.675 368.355 294.983 369.544 280.646 372.641C274.078 374.06 266.94 376.349 260.667 378.754C258.067 379.751 251.843 383.488 249.425 383.996C243.679 387.385 238.145 390.786 232.611 394.52C230.598 395.879 226.667 397.966 224.98 399.427C199.653 407.787 172.914 411.015 146.326 408.923C134.87 407.918 123.545 405.54 112.226 403.59C111.695 403.498 111.038 403.814 110.571 404.029C108.437 402.41 102.424 394.537 100.752 392.285C88.8523 376.253 76.1294 355.855 69.0733 337.046L67.952 334.422Z" />
    <path fill="#94508E"
        d="M69.0733 337.046C89.4739 334.102 101.486 333.697 122.16 334.887C160.928 337.12 191.841 348.981 224.945 368.684C230.603 371.991 236.197 375.409 241.722 378.934C243.497 380.051 248.053 382.677 249.425 383.996C243.679 387.385 238.145 390.786 232.611 394.52C230.598 395.879 226.667 397.966 224.98 399.427C199.653 407.787 172.914 411.015 146.326 408.923C134.87 407.918 123.545 405.54 112.226 403.59C111.695 403.498 111.038 403.814 110.571 404.029C108.437 402.41 102.424 394.537 100.752 392.285C88.8523 376.253 76.1294 355.855 69.0733 337.046Z" />
    <defs>
        <linearGradient id="gradient_2" gradientUnits="userSpaceOnUse" x1="244.87108" y1="440.68237" x2="521.89478"
            y2="321.34467">
            <stop offset="0" stop-color="#7379B2" />
            <stop offset="1" stop-color="#4D90CC" />
        </linearGradient>
    </defs>
    <path fill="url(#gradient_2)"
        d="M516.364 304.083C507.278 335.425 494.978 363.426 475.393 389.758C473.922 391.735 467.507 400.258 465.625 401.475C464.885 401.234 464.44 401.162 463.682 401.492C457.056 404.385 450.519 407.713 443.819 410.467C426.727 417.474 408.687 421.898 390.292 423.592C370 425.487 349.535 424.109 329.681 419.509C316.714 416.383 303.194 411.118 290.392 407.045C269.278 400.336 247.071 397.75 224.98 399.427C226.667 397.966 230.598 395.879 232.611 394.52C238.145 390.786 243.679 387.385 249.425 383.996C251.843 383.488 258.067 379.751 260.667 378.754C266.94 376.349 274.078 374.06 280.646 372.641C294.983 369.544 311.675 368.355 326.35 368.606C337.253 368.793 347.014 369.724 358.178 369.233C385.192 368.048 410.583 360.991 434.084 347.6C437.157 345.849 441.766 343.872 444.315 341.363C444.961 340.728 444.799 340.08 444.759 339.298C469.778 333.047 495.929 319.738 516.364 304.083Z" />
    <path fill="#462A5E"
        d="M303.989 227.979C310.287 228.015 314.37 229.573 318.437 234.408L319.559 228.994C322.735 229.033 325.973 229.001 329.155 229.001L329.127 257.265C329.119 264.9 329.992 274.613 325.856 281.271C318.512 293.093 299.105 292.827 288.464 286.202L289.991 281.501C290.596 280.191 291.084 278.773 291.587 277.415C298.685 281.111 313.897 284.984 316.606 273.187C317.021 271.383 316.875 268.21 316.889 266.266C309.634 273.061 299.94 273.753 292.01 267.225C287.613 263.359 285.553 258.057 285.176 252.377C284.326 239.598 290.25 228.606 303.989 227.979Z" />
    <path fill="white"
        d="M306.086 237.775C311.119 237.866 312.917 238.823 316.724 241.903C316.907 247.087 316.907 252.276 316.726 257.46C313.836 260.215 312.693 261.278 308.719 262.152C303.701 262.004 299.313 260.567 297.878 255.251C295.722 247.264 297.549 240.26 306.086 237.775Z" />
    <path fill="#462A5E"
        d="M515.889 209.264L527.849 209.264L527.715 272.283L517.669 272.277L516.838 267.127C510.641 273.083 505.809 274.698 497.358 272.916C495.566 272.274 493.871 271.39 492.32 270.288C478.66 260.41 482.243 229.871 501.04 227.923C507.132 227.292 511.061 228.977 515.735 232.566C515.685 224.87 515.812 216.973 515.889 209.264Z" />
    <path fill="white"
        d="M505.017 238.041C509.758 237.853 512.39 239.272 515.728 242.423C515.706 248.003 515.728 253.583 515.791 259.163C513.256 261.652 511.175 263.259 507.515 263.547C502.795 263.481 499.123 262.219 497.263 257.336C495.774 253.43 495.705 248.279 497.358 244.4C498.983 240.586 501.405 239.398 505.017 238.041Z" />
    <path fill="#462A5E"
        d="M175.594 235.384C175.838 235.088 176.088 234.798 176.346 234.514C179.936 230.523 183.96 228.153 189.352 228.068C206.658 227.797 204.963 242.276 204.992 253.998L205.214 272.51C201.25 272.554 197.218 272.516 193.248 272.517L193.272 254.884C193.268 251.905 193.529 246.813 192.813 244.035C190.226 233.998 182.376 237.88 177.278 242.527L177.46 266.44L177.322 272.509C173.394 272.552 169.4 272.517 165.465 272.52L165.491 255.383C165.507 248.123 166.968 233.159 153.497 239.355C152.056 240.017 150.647 241.352 149.425 242.389L149.479 272.424L137.45 272.519C137.303 258.021 137.312 243.521 137.479 229.024C140.9 229.143 144.418 229.076 147.849 229.054C148.141 231.227 148.36 233.102 148.521 235.287C152.686 230.503 155.219 229.297 161.29 228.226C168.064 227.55 171.868 229.859 175.594 235.384Z" />
    <path fill="#462A5E"
        d="M57.7802 227.717C70.4523 225.959 82.16 234.779 83.9635 247.444C85.7671 260.109 76.9871 271.847 64.3277 273.695C51.6049 275.552 39.7943 266.719 37.9818 253.991C36.1692 241.263 45.0446 229.485 57.7802 227.717Z" />
    <path fill="white"
        d="M59.4148 237.281C69.4406 237.721 72.1902 243.103 71.7328 252.48C71.4423 258.438 68.8056 263.015 62.6244 264.482C55.9134 264.515 51.8884 261.918 50.4714 255.073C48.9332 247.641 50.8583 239.071 59.4148 237.281Z" />
    <path fill="#462A5E"
        d="M407.144 227.669C419.777 226.053 431.353 234.914 433.092 247.529C434.83 260.144 426.081 271.805 413.482 273.666C400.71 275.552 388.851 266.657 387.089 253.867C385.326 241.078 394.337 229.307 407.144 227.669Z" />
    <path fill="white"
        d="M407.75 237.258C413.426 237.114 418.464 238.701 420.103 244.663C422.224 252.38 421.098 261.666 412.427 264.301C407.028 264.636 401.715 262.79 400.137 257.218C397.834 249.088 398.778 240.293 407.75 237.258Z" />
    <path fill="#462A5E"
        d="M455.571 228.23C461.382 227.666 467.706 228.52 472.036 232.761C478.098 238.697 476.999 249.699 476.983 257.491L476.992 272.494C473.54 272.534 470.015 272.494 466.556 272.492C466.376 270.846 466.263 269.282 466.151 267.631C458.972 275.095 448.947 275.336 440.938 269.079C436.09 263.84 437.364 253.357 443.62 249.59C450.177 245.642 457.567 245.805 464.85 247.23C464.841 245.383 464.952 243.208 464.188 241.513C460.767 233.924 450.081 238.39 444.754 240.581C444.062 238.14 442.188 234.493 441.049 232.104C446.755 229.932 449.493 229.02 455.571 228.23Z" />
    <path fill="white"
        d="M455.596 253.92C459.525 253.793 461.031 254.13 464.873 254.862C464.98 256.9 464.922 258.842 464.881 260.877C462.416 262.993 461.722 263.499 458.683 264.577C455.368 265.195 450.978 264.476 449.866 260.77C449.496 259.568 449.65 258.265 450.29 257.183C451.486 255.128 453.478 254.508 455.596 253.92Z" />
    <path fill="#462A5E"
        d="M107.294 228.233C107.971 228.17 108.65 228.139 109.33 228.139C114.307 228.102 119.595 229.179 123.227 232.826C125.099 234.718 126.452 237.061 127.153 239.629C128.624 245.036 127.925 265.707 127.873 272.468C124.543 272.435 121.213 272.43 117.883 272.452C117.573 270.624 117.426 269.478 117.304 267.63C109.971 274.643 100.022 275.864 92.0217 269.209C87.5348 263.474 87.9916 254.374 94.0966 249.951C100.119 245.588 109.043 246.118 116.017 247.171C115.934 244.894 115.636 242.63 115.128 240.409C109.857 234.755 102.058 238.161 95.9322 240.442C94.6774 237.728 93.4582 234.999 92.2749 232.253C98.3835 229.881 100.681 229.042 107.294 228.233Z" />
    <path fill="white"
        d="M106.681 253.94C110.493 253.828 112.04 254.16 115.772 254.871L115.792 260.992C113.544 262.973 112.752 263.452 109.941 264.476C103.886 265.373 98.0941 262.607 101.883 256.007C103.693 254.784 104.651 254.503 106.681 253.94Z" />
    <path fill="#462A5E"
        d="M261.147 228.212C261.587 228.178 262.027 228.152 262.468 228.132C279.601 227.403 277.707 244.714 277.703 256.568L277.685 272.473L265.769 272.467C265.694 266.11 267.007 244.192 263.841 239.952C262.946 238.755 261.245 238.081 259.814 237.863C256.77 237.399 253.456 238.999 251.077 240.788C250.791 241.002 249.48 242.032 249.47 242.317C249.126 252.078 249.315 262.793 249.337 272.479L237.304 272.479C237.54 258.233 237.387 243.246 237.342 228.968L247.647 228.938C248.083 231.208 248.445 232.948 248.583 235.272C252.358 230.56 255.419 229.329 261.147 228.212Z" />
    <path fill="#462A5E"
        d="M550.547 228.508C556.334 227.948 561.053 229.128 566.281 231.548C565.634 234.426 564.971 237.3 564.293 240.17C560.412 238.634 556.241 236.766 551.973 237.071C548.797 237.298 547.637 238.436 545.745 240.609C548.328 244.412 552.219 244.912 556.315 246.371C566.44 249.98 571.753 257.313 565.293 267.406C562.731 271.409 557 272.498 552.617 273.321C547.24 273.432 540.626 272.258 535.865 269.727C536.573 267.186 537.274 263.445 537.851 260.784C543.636 262.965 549.183 265.558 555.223 263.51C556.189 262.241 556.433 261.68 557.103 260.28C551.826 252.813 538.643 256.171 536.016 244.1C535.332 240.885 535.99 237.529 537.839 234.81C540.939 230.268 545.581 229.406 550.547 228.508Z" />
    <path fill="#462A5E"
        d="M381.904 228.239L382.509 228.367C383 229.556 382.759 237.513 382.734 239.188C376.574 239.186 373.208 239.707 369.249 245.042C368.795 253.321 369.153 263.927 369.123 272.483C364.885 272.614 361.593 272.778 357.365 272.121L357.314 267.285L357.32 229.036C360.599 229.116 364.134 229.055 367.434 229.059C367.814 231.41 368.071 233.893 368.353 236.266C371.95 229.461 374.646 228.757 381.904 228.239Z" />
    <path fill="#462A5E"
        d="M33.2061 228.238C33.3046 228.243 33.6319 228.453 33.7382 228.514C34.0048 230.817 33.8055 236.471 33.8429 239.17C26.976 239.236 24.7174 239.636 20.2471 245.134C19.9228 253.736 20.184 263.734 20.1662 272.474L8.42729 272.442L8.39311 267.321L8.39986 229.035C11.6677 229.133 15.3128 229.06 18.6097 229.064C18.921 231.463 19.163 233.871 19.3353 236.284C23.0765 229.512 25.7475 228.795 33.2061 228.238Z" />
    <path fill="#462A5E"
        d="M215.07 229.126C218.141 229.337 223.457 229.163 226.701 229.163C226.918 242.773 226.851 258.606 226.598 272.214C222.676 272.429 218.749 272.523 214.822 272.497L214.836 242.196C214.835 240.026 214.652 230.6 215.07 229.126Z" />
    <path fill="#462A5E"
        d="M219.757 208.995C222.916 208.941 225.595 209.497 227.012 212.753C227.655 214.195 227.677 215.838 227.073 217.297C226.083 219.656 224.35 220.505 222.173 221.394C218.635 221.425 215.475 220.216 214.412 216.481C213.98 215.007 214.174 213.419 214.949 212.093C216.1 210.146 217.697 209.507 219.757 208.995Z" />
</svg>