<?xml version="1.0" encoding="utf-8" ?>
<svg xmlns="http://www.w3.org/2000/svg"
    xmlns:xlink="http://www.w3.org/1999/xlink" width="579" height="521" viewBox="0 0 579 521">
    <path fill="none" d="M0 0L579 0L579 521L0 521L0 0Z" />
    <path fill="#EA917A"
        d="M115.002 85.5462C118.594 81.1141 125.857 74.3405 130.21 70.2655C166.51 36.6295 212.719 15.6379 261.934 10.4257C326.685 3.66173 381.703 20.9183 432.149 61.9162C447.2 74.3158 460.724 88.4607 472.435 104.053C475.514 108.084 478.301 112.388 481.301 116.465C491.308 130.364 502.101 151.964 507.96 167.737C503.673 171.697 494.398 176.473 489.276 179.34C435.056 209.693 372.984 210.211 316.01 187.149C299.46 180.45 282.304 173.108 265.308 167.345C245.845 160.756 232.626 158.378 212.743 155.429C164.5 148.401 114.455 159.7 72.0564 182.747C66.7466 185.633 61.4765 188.485 56.2089 191.452C59.7565 181.044 62.1087 172.856 66.3699 162.378C75.7731 139.411 88.3688 117.885 103.785 98.4356C107.386 93.9142 110.84 89.5645 115.002 85.5462Z" />
    <path fill="#EA917A"
        d="M115.002 85.5462C118.594 81.1141 125.857 74.3405 130.21 70.2655C166.51 36.6295 212.719 15.6379 261.934 10.4257C326.685 3.66173 381.703 20.9183 432.149 61.9162C447.2 74.3158 460.724 88.4607 472.435 104.053C475.514 108.084 478.301 112.388 481.301 116.465C479.637 117.037 477.593 117.664 475.883 118.13C459.85 122.507 446.429 133.057 431.088 138.841C430.848 135.719 430.878 131.953 430.835 128.771C432.028 127.621 434.439 125.168 435.875 124.746C438.076 124.099 440.322 126.802 442.894 125.691C443.449 124.816 443.355 124.609 443.313 123.513C442.883 122.702 441.792 122.141 440.983 121.613C441.664 121.127 442.354 120.654 443.054 120.195C445.246 118.782 445.774 120.689 447.872 119.757C450.628 118.532 453.522 116.899 456.063 115.264C456.289 115.119 457.027 113.665 457.175 113.371C456.499 112.767 455.466 112.05 454.716 111.494C455.942 110.583 456.623 109.766 458.093 110.332C458.48 110.482 458.997 110.56 459.405 110.464C459.961 110.334 460.517 109.395 460.779 108.909C462.158 106.21 459.017 106.519 458.181 104.998C458.129 104.903 458.263 102.914 457.999 102.417C457.781 102.006 457.165 101.955 456.564 101.754C454.95 98.5223 458.404 98.2252 452.383 96.3418C454.468 95.3221 456.063 95.0224 456.844 92.9493C456.421 89.67 450.378 90.1649 447.858 90.1205C453.585 82.7519 441.731 85.5514 440.089 83.5636C441.303 83.1533 442.9 82.8882 443.287 81.6055C443.193 81.3777 443.133 81.189 442.97 81.0585C440.26 78.878 433.887 78.3956 430.606 78.2962C430.237 78.285 428.071 74.4806 425.579 74.9477C425.421 74.9774 420.637 74.9107 419.899 75.3528C419.904 75.35 419.116 76.6951 419.111 76.6975C416.924 77.8839 414.206 78.2521 411.973 79.2438C411.65 79.3871 410.057 80.8422 409.745 81.1282L411.255 83.3342C412.03 83.6575 412.099 83.411 413.155 83.0561C412.606 83.9971 411.466 84.9963 410.659 85.7884C403.417 87.4996 406.865 88.7642 403.672 90.163C401.804 90.2013 390.023 93.5577 387.123 94.1525C346.421 102.503 308.486 90.9703 270.181 78.5139C250.312 72.0529 224.265 67.8807 203.477 67.5049C181.542 67.025 159.681 70.2003 138.789 76.9006C135.026 78.1093 117.495 85.5126 115.002 85.5462Z" />
    <path fill="#565082"
        d="M409.745 81.1282C410.057 80.8422 411.65 79.3871 411.973 79.2438C414.206 78.2521 416.924 77.8839 419.111 76.6975C419.116 76.6951 419.904 75.35 419.899 75.3528C420.637 74.9107 425.421 74.9774 425.579 74.9477C428.071 74.4806 430.237 78.285 430.606 78.2962C433.887 78.3956 440.26 78.878 442.97 81.0585C443.133 81.189 443.193 81.3777 443.287 81.6055C442.9 82.8882 441.303 83.1533 440.089 83.5636C441.731 85.5514 453.585 82.7519 447.858 90.1205C450.378 90.1649 456.421 89.67 456.844 92.9493C456.063 95.0224 454.468 95.3221 452.383 96.3418C458.404 98.2252 454.95 98.5223 456.564 101.754C457.165 101.955 457.781 102.006 457.999 102.417C458.263 102.914 458.129 104.903 458.181 104.998C459.017 106.519 462.158 106.21 460.779 108.909C460.517 109.395 459.961 110.334 459.405 110.464C458.997 110.56 458.48 110.482 458.093 110.332C456.623 109.766 455.942 110.583 454.716 111.494C455.466 112.05 456.499 112.767 457.175 113.371C457.027 113.665 456.289 115.119 456.063 115.264C453.522 116.899 450.628 118.532 447.872 119.757C445.774 120.689 445.246 118.782 443.054 120.195C442.354 120.654 441.664 121.127 440.983 121.613C441.792 122.141 442.883 122.702 443.313 123.513C443.355 124.609 443.449 124.816 442.894 125.691C440.322 126.802 438.076 124.099 435.875 124.746C434.439 125.168 432.028 127.621 430.835 128.771C430.878 131.953 430.848 135.719 431.088 138.841C446.429 133.057 459.85 122.507 475.883 118.13C477.593 117.664 479.637 117.037 481.301 116.465C491.308 130.364 502.101 151.964 507.96 167.737C503.673 171.697 494.398 176.473 489.276 179.34C435.056 209.693 372.984 210.211 316.01 187.149C299.46 180.45 282.304 173.108 265.308 167.345C245.845 160.756 232.626 158.378 212.743 155.429C214.111 154.367 218.721 152.122 220.382 151.289C228.809 147.091 237.369 143.165 246.048 139.516C274.972 127.417 305.206 122.872 336.19 129.207C368.191 135.751 390.806 151.695 424.141 141.301C424.77 137.358 424.91 133.252 425.047 129.267C422.472 128.251 419.941 127.483 417.275 126.753C416.673 126.588 417.54 124.41 416.614 123.119C414.02 122.257 413.392 124.917 410.948 125.178C407.921 125.501 408.554 121.951 408.1 120.477C405.746 120.095 404.127 122.265 401.602 122.577C399.352 121.882 400.552 120.955 399.313 118.944C397.843 118.498 397.166 119.714 395.644 119.875C394.493 120.091 392.521 118.202 392.783 117.107C393.301 114.936 397.05 114.062 398.71 112.884C397.681 112.051 397.164 111.728 396.843 110.509C397.356 107.977 400.991 107.656 403.037 104.888C404.512 104.908 406.184 105.03 407.674 105.105C405.702 104.284 404.691 103.867 402.89 102.763L400.031 105.106C394.944 102.277 397.79 102.304 397.682 100.232L396.243 100.009C395.939 99.4781 395.857 99.5183 395.971 98.7939C396.674 94.343 402.096 96.4902 405.515 93.9869C405.951 93.1034 405.919 93.5394 405.688 92.6428C404.705 91.8013 404.06 91.4441 403.672 90.163C406.865 88.7642 403.417 87.4996 410.659 85.7884C411.466 84.9963 412.606 83.9971 413.155 83.0561C412.099 83.411 412.03 83.6575 411.255 83.3342L409.745 81.1282Z" />
    <path fill="#EA917A"
        d="M433.52 120.039L433.733 119.983C434.358 120.392 434.555 120.437 435.292 120.561L435.285 120.981C434.287 122.191 433.164 122.916 431.9 123.84L431.389 124.262L430.945 124.175C430.738 123.25 430.734 122.291 430.934 121.363C431.317 119.624 431.26 121.469 433.52 120.039Z" />
    <path fill="#EA917A"
        d="M421.139 122.451C422.583 122.605 423.886 122.249 424.982 122.854C425.626 123.704 425.512 124.701 425.566 125.826C424.017 125.092 421.805 124.635 420.943 123.241L421.139 122.451Z" />
    <path fill="#565082"
        d="M165.24 453.644C168.482 451.719 175.427 446.072 178.859 443.611C187.988 437.064 197.161 430.34 206.669 424.333C218.985 416.398 231.522 408.812 244.267 401.587C254.011 396.246 263.919 391.208 273.975 386.48C285.593 380.887 297.55 375.311 309.577 370.606C335.667 360.434 362.888 353.173 390.061 346.536C394.35 345.489 403.685 343.292 407.978 343.248C442.67 342.887 480.583 337.897 511.896 322.068C509.758 327.045 508.244 331.931 505.808 336.973L503.995 341.042C498.751 351.693 494.002 361.543 487.721 371.649C447.91 435.702 386.61 478.326 311.186 486.927C310.481 487.208 303.469 487.574 302.029 487.689C276.223 489.587 250.282 487.074 225.32 480.258C206.843 475.35 181.39 464.222 165.24 453.644Z" />
    <path fill="#565082"
        d="M311.186 486.927L310.649 486.71L310.602 486.266C311.351 484.597 312.154 483.791 313.038 482.306C319.82 470.91 327.625 458.827 335.422 448.106C343.145 437.705 351.326 427.652 359.942 417.976C368.567 408.534 377.856 399.721 387.739 391.605C392.727 387.446 397.292 383.599 402.555 379.777C425.676 363.092 451.998 351.37 479.867 345.345C486.47 343.868 497.564 341.379 503.995 341.042C498.751 351.693 494.002 361.543 487.721 371.649C447.91 435.702 386.61 478.326 311.186 486.927Z" />
    <path fill="#9379A2"
        d="M225.32 480.258C229.49 475.098 242.102 463.555 247.289 458.789C273.656 434.428 302.218 412.554 332.611 393.449C349.529 382.81 365.75 373.535 384.202 365.615C391.544 362.463 398.72 359.96 406.252 357.352C419.614 352.603 433.205 348.527 446.975 345.142C459.844 342.016 472.897 339.712 486.058 338.242C492.171 337.528 499.652 336.711 505.808 336.973L503.995 341.042C497.564 341.379 486.47 343.868 479.867 345.345C451.998 351.37 425.676 363.092 402.555 379.777C397.292 383.599 392.727 387.446 387.739 391.605C377.856 399.721 368.567 408.534 359.942 417.976C351.326 427.652 343.145 437.705 335.422 448.106C327.625 458.827 319.82 470.91 313.038 482.306C312.154 483.791 311.351 484.597 310.602 486.266L310.649 486.71L311.186 486.927C310.481 487.208 303.469 487.574 302.029 487.689C276.223 489.587 250.282 487.074 225.32 480.258Z" />
    <path fill="#565082"
        d="M64.5083 334.521C85.3563 321.197 110.948 311.866 134.773 306.129C183.505 294.03 233.671 303.519 280.392 319.387C314.056 330.821 348.333 341.375 384.386 342.327L385.114 343.061L385.052 343.639C381.245 344.521 377.38 345.209 373.508 346.128C360.513 349.275 347.615 352.81 334.831 356.727C280.695 373.676 228.591 400.329 181.28 431.389C172.646 437.058 165.544 442.753 157.351 448.372C149.311 443.615 136.365 433.194 129.483 426.911C107.252 406.524 88.7126 382.448 74.6841 355.746C71.16 349.075 67.726 341.385 64.5083 334.521Z" />
    <path fill="#565082"
        d="M303.189 227.069C311.388 226.652 315.814 228.154 321.083 234.632C321.275 227.687 324.322 228.464 329.983 228.455L329.985 252.152C329.989 258.213 330.128 263.854 329.348 269.903C326.603 291.183 301.491 291.512 286.676 282.337C287.505 280.703 288.344 279.073 289.193 277.449C289.973 276.12 290.741 274.674 291.491 273.318C294.566 276.215 298.148 278.074 302.353 278.431C314.508 279.466 318.273 274.558 319.293 263.672C313.34 272.408 302.372 273.078 294.08 267.274C289.417 264.002 286.266 258.994 285.333 253.376C283.193 240.729 290.207 229.168 303.189 227.069Z" />
    <path fill="white"
        d="M306.045 236.997C320.281 235.789 324.116 256.362 308.844 261.19C295.163 262.195 290.551 241.383 306.045 236.997Z" />
    <path fill="#565082"
        d="M528.436 208.866L528.885 209.194C529.108 210.983 528.974 214.218 528.973 216.134L528.982 229.041L528.982 273.53C525.709 273.597 522.529 273.426 519.239 273.661C519.046 271.047 518.886 269.142 519.007 266.504C518.44 267.385 517.813 268.226 517.132 269.022C509.936 277.398 498.228 276.468 490.314 269.607C485.636 264.531 483.815 259.999 483.406 253.102C482.654 240.869 489.89 227.707 503.295 227.235C509.705 227.009 514.02 230.013 518.511 234.183C518.542 227.712 518.385 221.085 518.552 214.642C521.11 212.593 525.458 210.423 528.436 208.866Z" />
    <path fill="white"
        d="M504.292 238.32C511.164 237.173 517.688 241.742 518.961 248.591C520.234 255.44 515.787 262.047 508.961 263.446C504.433 264.374 499.756 262.785 496.731 259.29C493.706 255.795 492.804 250.94 494.371 246.592C495.939 242.244 499.732 239.081 504.292 238.32Z" />
    <path fill="#565082"
        d="M406.371 227.216C419.512 225.026 431.929 233.938 434.061 247.088C436.192 260.238 427.225 272.614 414.064 274.687C400.986 276.747 388.703 267.849 386.585 254.781C384.467 241.713 393.311 229.391 406.371 227.216Z" />
    <path fill="white"
        d="M408.832 237.261C425.921 235.622 428.875 261.929 411.798 264.907C404.184 265.246 398.571 260.932 397.218 253.451C396.568 249.763 397.414 245.969 399.57 242.907C401.941 239.515 404.844 237.957 408.832 237.261Z" />
    <path fill="#565082"
        d="M176.128 234.79C180.861 228.228 190.723 223.259 197.898 229.431C204.139 234.799 202.929 245.078 202.921 252.585L202.961 273.852L191.967 273.881C191.994 267.475 192.954 245.426 190.857 240.809C189.97 238.858 188.242 238.414 186.374 237.78C175.834 240.894 175.724 247.415 176.12 256.974C176.252 260.145 176.146 263.993 176.144 267.214L176.08 273.848C172.497 273.765 168.679 273.843 165.078 273.856L165.135 253.392C165.142 250.274 165.501 244.617 164.784 241.793C163.284 235.88 156.539 238.959 153.798 241.697C152.162 243.319 150.993 245.349 150.411 247.578C149.562 250.826 149.983 269.629 149.999 273.854L139.125 273.922C139.066 268.807 138.801 230.999 139.594 229.314C141.415 228.253 145.375 228.679 147.443 228.966C148.56 229.786 148.945 233.337 149.234 234.884C153.416 229.905 155.277 228.067 161.589 226.772C163.221 226.579 164.872 226.633 166.488 226.932C171.425 227.893 173.577 230.944 176.128 234.79Z" />
    <path fill="#565082"
        d="M59.0279 227.158C72.2841 226.239 83.7558 236.284 84.5954 249.544C85.4351 262.804 75.3219 274.215 62.0557 274.975C48.9008 275.73 37.6057 265.721 36.7731 252.572C35.9405 239.422 45.8829 228.069 59.0279 227.158Z" />
    <path fill="white"
        d="M59.2481 237.51C76.5716 236.647 78.5348 261.451 62.4016 264.888C54.9777 265.375 49.1665 261.131 47.7109 253.81C47.0166 250.164 47.7927 246.39 49.8698 243.314C52.1986 239.877 55.2887 238.296 59.2481 237.51Z" />
    <path fill="#565082"
        d="M107.021 227.117C116.421 226.561 125.166 229.558 127.652 239.758C128.773 244.355 128.353 250.19 128.336 254.99L128.257 273.91L117.88 273.839C117.667 271.318 117.447 269.589 117 267.101C111.384 274.891 103.668 277.548 94.5789 272.541C93.3869 271.885 92.507 270.867 91.6007 269.859C89.8477 267.357 88.8955 264.381 88.8699 261.326C88.6135 244.972 105.703 246.226 117.27 246.116C116.714 242.104 115.933 238.837 111.45 237.46C105.31 235.573 99.6661 238.876 94.3925 241.656C93.7403 239.452 91.7195 235.159 90.7791 232.588C95.4844 228.742 101.077 227.514 107.021 227.117Z" />
    <path fill="white"
        d="M108.586 255.39C111.507 255.122 114.425 255.322 117.334 255.595C115.927 260.954 114.226 264.09 108.555 265.691C103.979 266.46 96.9287 264.473 100.622 258.158C101.909 255.957 106.105 255.582 108.586 255.39Z" />
    <path fill="#565082"
        d="M455.059 227.375C464.403 226.145 474.021 229.64 476.238 239.624C477.332 244.554 477.011 249.758 477.01 254.791L476.991 273.54C473.461 273.506 469.888 273.402 466.356 273.322C466.312 270.756 466.36 268.923 466.542 266.364C465.786 267.415 464.964 268.416 464.081 269.362C457.666 276.196 448.028 276.874 441.1 270.401C440.53 269.71 440.027 268.966 439.598 268.18C437.716 264.809 437.542 259.94 438.673 256.318C441.662 246.33 452.441 246.087 461.064 246.259C465.768 246.353 468 246.724 465.003 241.378C463.598 238.871 462.328 237.929 459.499 237.227C453.627 235.771 448.568 238.353 443.687 241.307C442.486 238.915 440.897 236.454 439.488 234.157C444.791 229.813 448.246 228.228 455.059 227.375Z" />
    <path fill="white"
        d="M456.102 255.108C459.613 255.02 463.302 255.127 466.829 255.18C466.71 255.725 466.578 256.267 466.432 256.805C465.276 261.019 463.296 262.928 459.603 265.014C455.463 266.518 451.768 266.282 448.992 262.605C448.657 256.813 450.347 255.467 456.102 255.108Z" />
    <path fill="#565082"
        d="M260.484 227.086C270.613 226.266 276.803 232.706 277.024 242.636C277.106 246.298 277.046 249.974 277.035 253.639L277.05 273.803C273.491 273.749 269.65 273.853 266.069 273.883L266.187 256.303C266.223 249.698 267.802 238.403 258.608 238.243C256.276 238.203 254.154 239.457 252.377 240.787C252.176 240.984 251.976 241.182 251.778 241.382C250.647 242.516 249.293 243.839 248.724 245.365C247.226 249.381 248.036 268.634 248.053 273.722L236.897 273.705C236.923 258.995 237.12 243.678 236.818 229.015C243.477 228.588 245.885 227.087 248.451 234.104C251.886 229.912 255.155 227.861 260.484 227.086Z" />
    <path fill="#565082"
        d="M552.629 227.395C558.51 226.745 564.011 228.188 569.387 230.428C568.273 233.005 566.534 236.942 565.807 239.56C561.219 237.886 552.601 235.432 548.579 239.001C544.724 242.422 551.415 244.968 553.813 245.494C560.012 246.854 568.069 249.455 569.805 256.36C570.897 260.702 570.124 266.912 566.863 270.291C562.875 274.355 556.155 274.957 550.848 275.013C545.56 274.772 539.574 273.479 535.494 269.893L540.36 261.515C543.183 263.823 546.107 265.066 549.785 265.26C553.021 265.431 559.904 265.214 560.081 260.692C558.776 257.145 551.033 256.044 547.747 254.851C542.464 253.054 537.083 249.654 536.611 243.403C535.731 231.748 542.902 228.346 552.629 227.395Z" />
    <path fill="#565082"
        d="M29.9704 227.359C30.8687 227.276 31.7706 227.239 32.6726 227.248C34.0061 227.251 34.3988 227.242 35.3463 228.204C36.0622 229.877 33.9299 236.378 33.3462 239.004C19.2403 239.869 18.5509 247.064 18.628 259.092C18.659 263.915 18.5569 269.085 18.4981 273.934C16.4505 273.955 8.97222 274.337 7.79643 273.575L7.75346 272.727C8.09136 266.877 7.38389 230.377 8.41186 228.764C9.42174 228.225 9.9934 228.185 11.1473 228.171C17.5821 228.096 17.858 230.99 17.5248 236.629C21.4033 231.321 23.3106 228.695 29.9704 227.359Z" />
    <path fill="#565082"
        d="M381.038 227.376L384.089 227.262C384.241 230.954 384.175 235.074 384.189 238.799L383.699 238.792C366.072 238.584 368.912 262.045 368.952 273.855C365.506 273.843 361.997 273.755 358.546 273.703L358.509 268.729C358.565 255.315 358.553 241.901 358.472 228.487L367.998 228.345L368.026 237.85C368.51 237.096 369.007 236.351 369.515 235.615C372.923 230.716 375.104 228.458 381.038 227.376Z" />
    <path fill="#565082"
        d="M215.816 229.078C217.694 229.013 223.668 228.509 225.027 229.58C225.578 231.407 226.035 272.092 225.252 273.736L224.546 273.828L214.224 273.88C214.259 268.938 213.704 231.032 214.504 229.64C214.7 229.299 215.445 229.194 215.816 229.078Z" />
    <path fill="#565082"
        d="M218.971 209.789C227.309 209.749 228.977 220.339 221.154 223.132C212.598 223.336 210.413 212.394 218.971 209.789Z" />
    <path fill="#9379A2"
        d="M384.386 342.327L390.424 342.519C388.43 343.025 387.077 343.336 385.052 343.639L385.114 343.061L384.386 342.327Z" />
</svg>