<?xml version="1.0" encoding="utf-8" ?>
<svg xmlns="http://www.w3.org/2000/svg"
    xmlns:xlink="http://www.w3.org/1999/xlink" width="579" height="521" viewBox="0 0 579 521">
    <path fill="none" d="M0 0L579 0L579 521L0 521L0 0Z" />
    <path fill="#F47626"
        d="M108.075 96.6192C115.974 87.9534 123.274 79.8919 132.1 72.0797C172.308 36.5263 223.552 15.9324 277.183 13.7741C335.842 11.0093 399.496 32.2106 443.016 72.0095C451.97 80.1985 459.462 88.3167 467.303 97.5713C481.783 112.509 492.198 133.189 501.241 151.744C502.778 154.896 503.935 158.322 505.4 161.327C504.244 162.121 502.82 163.161 501.656 163.886C484.289 175.9 459.69 185.052 439.295 190.425C395.672 201.73 349.643 199.521 307.303 184.089C286.618 176.57 269.694 168.173 248.189 161.937C207.533 150.294 164.469 149.971 123.643 161.003C98.4094 167.971 79.1274 179.411 58.3923 194.882C59.5204 191.959 60.7079 187.608 61.6538 184.53C63.3785 178.814 65.2432 173.141 67.2465 167.516C74.3151 147.999 83.8524 129.468 95.6261 112.373C99.619 106.548 103.054 101.608 108.075 96.6192Z" />
    <path fill="#DF4D54"
        d="M348.788 100.185C371.685 92.3221 398.131 90.6038 422.257 91.6375C432.233 92.119 442.158 93.3584 451.946 95.345C455.9 96.1409 463.932 99.0797 467.303 97.5713C481.783 112.509 492.198 133.189 501.241 151.744C502.778 154.896 503.935 158.322 505.4 161.327C504.244 162.121 502.82 163.161 501.656 163.886C484.289 175.9 459.69 185.052 439.295 190.425C395.672 201.73 349.643 199.521 307.303 184.089C286.618 176.57 269.694 168.173 248.189 161.937C207.533 150.294 164.469 149.971 123.643 161.003C122.894 160.955 123.205 161.11 122.647 160.642C123.392 158.649 134.427 153.145 136.684 151.992C162.325 138.899 188.865 132.545 217.705 133.406C225.78 133.221 234.318 134.631 242.338 134.397C268.836 133.623 294.962 129.573 318.896 118.218C321.207 116.622 324.066 115.109 326.467 113.494C333.977 108.44 340.771 104.355 348.788 100.185Z" />
    <path fill="#DC6768"
        d="M348.788 100.185C371.685 92.3221 398.131 90.6038 422.257 91.6375C432.233 92.119 442.158 93.3584 451.946 95.345C455.9 96.1409 463.932 99.0797 467.303 97.5713C481.783 112.509 492.198 133.189 501.241 151.744C502.778 154.896 503.935 158.322 505.4 161.327C504.244 162.121 502.82 163.161 501.656 163.886C501.433 163.655 500.397 162.646 500.096 162.652C493.022 162.793 485.241 163.545 478.214 164.497C432.927 170.631 386.964 160.557 347.865 137.039C341.094 132.998 333.315 128.906 326.634 124.523C324.044 122.823 321.332 120.18 318.896 118.218C321.207 116.622 324.066 115.109 326.467 113.494C333.977 108.44 340.771 104.355 348.788 100.185Z" />
    <path fill="#F6965E"
        d="M108.075 96.6192C109.187 97.7176 109.916 97.5023 111.379 97.0209C118.92 94.5406 126.266 91.1324 133.652 88.2904C137.448 86.8599 141.29 85.5527 145.171 84.3707C161.233 79.5129 177.873 76.8221 194.649 76.3697C216.812 75.7293 241.193 79.0843 262.306 85.8454C275.759 90.1536 286.449 93.9622 300.496 96.7593C310.318 98.8084 320.317 99.8905 330.351 99.9902C336.146 100.104 343.163 99.7747 348.788 100.185C340.771 104.355 333.977 108.44 326.467 113.494C324.066 115.109 321.207 116.622 318.896 118.218C294.962 129.573 268.836 133.623 242.338 134.397C234.318 134.631 225.78 133.221 217.705 133.406C188.865 132.545 162.325 138.899 136.684 151.992C134.427 153.145 123.392 158.649 122.647 160.642C123.205 161.11 122.894 160.955 123.643 161.003C98.4094 167.971 79.1274 179.411 58.3923 194.882C59.5204 191.959 60.7079 187.608 61.6538 184.53C63.3785 178.814 65.2432 173.141 67.2465 167.516C74.3151 147.999 83.8524 129.468 95.6261 112.373C99.619 106.548 103.054 101.608 108.075 96.6192Z" />
    <defs>
        <linearGradient id="gradient_0" gradientUnits="userSpaceOnUse" x1="112.27674" y1="406.53159" x2="456.16324"
            y2="455.32516">
            <stop offset="0" stop-color="#603B81" />
            <stop offset="1" stop-color="#344BA0" />
        </linearGradient>
    </defs>
    <path fill="url(#gradient_0)"
        d="M68.8246 336.919C68.437 336.054 67.8729 335.151 68.0907 334.29C69.9127 332.819 81.6823 326.815 84.1418 325.525C121.868 306.055 164.508 298.173 206.702 302.87C222.267 304.52 237.502 307.702 252.398 312.526C276.038 320.18 298.389 331.104 322.366 337.828C363.24 349.289 402.789 348.925 443.913 339.306C449.832 337.459 456.135 335.694 461.945 333.634C474.196 329.295 485.96 323.686 497.045 316.9C503.441 313.041 511.301 306.881 517.025 303.701L516.858 304.04C515.399 307.046 513.502 313.575 512.404 317.03C510.707 322.522 508.805 327.948 506.702 333.298C498.354 354.571 487.113 374.591 473.296 392.794C471.763 394.809 467.282 400.547 465.356 401.789C456.667 411.564 449.066 419.578 438.965 428.184C400.959 460.55 353.553 479.841 303.745 483.21C240.386 487.52 177.96 466.143 130.546 423.901C123.753 417.763 117.236 411.326 111.014 404.61C108.209 402.567 103.226 395.968 101.018 393.029C87.9502 375.639 76.8481 357.191 68.8246 336.919Z" />
    <defs>
        <linearGradient id="gradient_1" gradientUnits="userSpaceOnUse" x1="80.375946" y1="290.72198" x2="431.83286"
            y2="384.60861">
            <stop offset="0" stop-color="#6C3980" />
            <stop offset="1" stop-color="#4760B0" />
        </linearGradient>
    </defs>
    <path fill="url(#gradient_1)"
        d="M68.8246 336.919C68.437 336.054 67.8729 335.151 68.0907 334.29C69.9127 332.819 81.6823 326.815 84.1418 325.525C121.868 306.055 164.508 298.173 206.702 302.87C222.267 304.52 237.502 307.702 252.398 312.526C276.038 320.18 298.389 331.104 322.366 337.828C363.24 349.289 402.789 348.925 443.913 339.306C444.626 339.961 444.435 339.568 444.528 340.51C442.914 344.411 420.452 354.66 415.705 356.628C395.281 365.058 373.403 369.404 351.307 369.42C343.408 369.475 335.245 368.882 327.304 368.758C314.511 368.512 301.719 369.319 289.059 371.172C279.87 372.585 269.674 375.264 261.022 378.692C257.447 380.109 253.26 382.843 249.575 384.043C244.224 386.79 238.799 390.505 233.7 393.757C231.643 395.069 227.392 397.737 225.746 399.19C194.534 408.385 165.17 412.669 132.753 407.197C129.433 406.637 112.735 402.992 111.014 404.61C108.209 402.567 103.226 395.968 101.018 393.029C87.9502 375.639 76.8481 357.191 68.8246 336.919Z" />
    <path fill="#945090"
        d="M68.8246 336.919C102.985 331.8 141.733 334.003 174.559 344.965C190.257 350.208 205.207 357.635 219.648 365.658C226.199 369.292 232.644 373.113 238.975 377.116C241.955 378.967 246.992 381.786 249.575 384.043C244.224 386.79 238.799 390.505 233.7 393.757C231.643 395.069 227.392 397.737 225.746 399.19C194.534 408.385 165.17 412.669 132.753 407.197C129.433 406.637 112.735 402.992 111.014 404.61C108.209 402.567 103.226 395.968 101.018 393.029C87.9502 375.639 76.8481 357.191 68.8246 336.919Z" />
    <defs>
        <linearGradient id="gradient_2" gradientUnits="userSpaceOnUse" x1="247.00287" y1="441.84598" x2="522.34033"
            y2="319.05804">
            <stop offset="0" stop-color="#7579B2" />
            <stop offset="1" stop-color="#4C92CC" />
        </linearGradient>
    </defs>
    <path fill="url(#gradient_2)"
        d="M443.913 339.306C449.832 337.459 456.135 335.694 461.945 333.634C474.196 329.295 485.96 323.686 497.045 316.9C503.441 313.041 511.301 306.881 517.025 303.701L516.858 304.04C515.399 307.046 513.502 313.575 512.404 317.03C510.707 322.522 508.805 327.948 506.702 333.298C498.354 354.571 487.113 374.591 473.296 392.794C471.763 394.809 467.282 400.547 465.356 401.789C462.382 401.367 450.341 407.621 446.882 409.148C439.338 412.398 431.603 415.187 423.72 417.497C407.203 422.074 390.14 424.384 373 424.363C354.562 424.458 336.214 421.78 318.571 416.421C301.59 411.236 286.278 404.718 268.538 401.525C253.446 398.808 240.91 398.831 225.746 399.19C227.392 397.737 231.643 395.069 233.7 393.757C238.799 390.505 244.224 386.79 249.575 384.043C253.26 382.843 257.447 380.109 261.022 378.692C269.674 375.264 279.87 372.585 289.059 371.172C301.719 369.319 314.511 368.512 327.304 368.758C335.245 368.882 343.408 369.475 351.307 369.42C373.403 369.404 395.281 365.058 415.705 356.628C420.452 354.66 442.914 344.411 444.528 340.51C444.435 339.568 444.626 339.961 443.913 339.306Z" />
</svg>