<?xml version="1.0" encoding="UTF-8"?>
<svg version="1.1" xmlns="http://www.w3.org/2000/svg" width="579" height="521">
<path d="M0 0 C0.89332031 0.680625 1.78664063 1.36125 2.70703125 2.0625 C8.65620308 6.77188939 14.20817159 11.88503801 19.75 17.0625 C20.45938721 17.72330566 21.16877441 18.38411133 21.8996582 19.06494141 C26.56875296 23.47758863 30.83665166 28.11140274 35 33 C35.91119467 34.03393407 36.82384164 35.06659099 37.73828125 36.09765625 C50.96945475 51.33659508 76 81.21256901 76 102 C67.94765813 108.31221715 58.22985826 112.68543866 49 117 C48.28344238 117.33676758 47.56688477 117.67353516 46.82861328 118.02050781 C22.11595718 129.46348243 -6.49291993 136.97040802 -33.8359375 137.23828125 C-34.66456299 137.24802979 -35.49318848 137.25777832 -36.34692383 137.26782227 C-55.25939692 137.44435987 -73.44692467 137.10875548 -92 133 C-92.8559375 132.81276367 -93.711875 132.62552734 -94.59375 132.43261719 C-112.4194517 128.40094481 -129.33612247 121.71162757 -146.23495483 114.87811279 C-177.77853312 102.13065092 -208.95239391 93.54790106 -243.25 93.625 C-244.5596019 93.62531723 -244.5596019 93.62531723 -245.8956604 93.62564087 C-261.23861461 93.66253516 -275.93847745 94.89983661 -291 98 C-291.9590625 98.19255371 -292.918125 98.38510742 -293.90625 98.58349609 C-319.74318591 103.89373172 -343.678495 114.52675422 -364.8203125 130.3984375 C-367 132 -367 132 -369 133 C-362.48559693 104.55906954 -350.31202354 75.59515177 -333 52 C-332.61489258 51.4750293 -332.22978516 50.95005859 -331.83300781 50.40917969 C-326.94013184 43.78575441 -321.7940257 37.45118548 -316.20703125 31.39453125 C-314.72475961 29.78633211 -313.26388925 28.15816418 -311.82421875 26.51171875 C-287.10519606 -1.71977608 -253.15944925 -21.78195426 -218 -34 C-217.23042969 -34.27682617 -216.46085938 -34.55365234 -215.66796875 -34.83886719 C-144.93436835 -60.15758685 -59.34836898 -45.27453995 0 0 Z " fill="#F37324" transform="translate(429,60)"/>
<path d="M0 0 C1.64427979 0.3707666 1.64427979 0.3707666 3.32177734 0.74902344 C23.31646831 5.43195319 42.13068357 12.81715522 61.13525391 20.44970703 C76.18634799 26.49419277 91.17112289 31.38029056 107 35 C107.89605957 35.20786133 108.79211914 35.41572266 109.71533203 35.62988281 C134.71322862 41.22977825 161.67663626 41.43013761 187 38 C187.80276367 37.89139648 188.60552734 37.78279297 189.43261719 37.67089844 C194.65393607 36.93359404 199.8273917 36.02158714 205 35 C205.68690918 34.86899902 206.37381836 34.73799805 207.08154297 34.60302734 C233.51307781 29.44884689 257.94652796 17.39535838 280.01147461 2.27758789 C281.95348707 1.02988363 283.91717216 -0.00888537 286 -1 C277.23767172 35.38452506 258.83787844 71.19739951 233.23046875 98.59375 C231.33282504 100.64094531 229.50827604 102.72497562 227.6875 104.83984375 C212.87115829 121.80493977 194.40685405 136.09546616 174.75048828 147.0234375 C173.0286845 147.98399749 171.32463694 148.9761653 169.62109375 149.96875 C145.86599497 163.52629223 118.9257412 171.81166771 92 176 C90.85942139 176.17789063 90.85942139 176.17789063 89.69580078 176.359375 C43.47961556 183.1806525 -5.21487243 174.45730204 -47 154 C-47.64195312 153.68595215 -48.28390625 153.3719043 -48.9453125 153.04833984 C-69.03952739 143.06841985 -86.91133473 130.02847707 -103.16015625 114.62890625 C-105.93406953 111.98372982 -105.93406953 111.98372982 -108.87109375 109.77734375 C-109.57363281 109.19082031 -110.27617188 108.60429687 -111 108 C-111 107.34 -111 106.68 -111 106 C-111.66 106 -112.32 106 -113 106 C-113 105.34 -113 104.68 -113 104 C-113.66 104 -114.32 104 -115 104 C-133.59245835 86.54585543 -147.4201686 61.53589106 -158.13134766 38.73144531 C-159.0649567 36.79452832 -159.0649567 36.79452832 -160.73046875 34.3046875 C-162.12737628 31.8375339 -162.35264036 30.77483676 -162 28 C-157.11435114 24.09281215 -151.65067863 21.61462147 -146 19 C-144.74909264 18.37943391 -143.50022983 17.75472139 -142.25390625 17.125 C-124.9469037 8.63262635 -106.83429912 2.99333825 -88 -1 C-86.72890381 -1.27118652 -86.72890381 -1.27118652 -85.43212891 -1.54785156 C-58.25149387 -7.01113205 -26.92658644 -6.1221668 0 0 Z " fill="#5A4A95" transform="translate(230,306)"/>
<path d="M0 0 C2.72458403 0.0053831 5.44900477 0.00000961 8.17358398 -0.00634766 C20.80963501 -0.01354867 32.60501044 0.50148418 44.90600586 3.63037109 C46.71573557 4.07895849 48.52562629 4.52689692 50.33569336 4.97412109 C51.11928223 5.17199219 51.90287109 5.36986328 52.71020508 5.57373047 C54.363061 5.97016551 56.03163928 6.30330655 57.70654297 6.59277344 C62.62550769 7.73042288 65.23929251 13.23176789 68.03100586 17.13037109 C68.6057666 17.9318457 68.6057666 17.9318457 69.19213867 18.74951172 C96.03100586 56.57492093 96.03100586 56.57492093 96.03100586 70.13037109 C87.97866399 76.44258824 78.26086412 80.81580975 69.03100586 85.13037109 C68.31444824 85.46713867 67.59789062 85.80390625 66.85961914 86.15087891 C42.14696304 97.59385352 13.53808593 105.10077911 -13.80493164 105.36865234 C-14.63355713 105.37840088 -15.46218262 105.38814941 -16.31591797 105.39819336 C-35.22839106 105.57473096 -53.41591881 105.23912658 -71.96899414 101.13037109 C-72.82493164 100.94313477 -73.68086914 100.75589844 -74.56274414 100.56298828 C-92.38844584 96.5313159 -109.30511661 89.84199866 -126.20394897 83.00848389 C-157.75053618 70.25980604 -188.91934466 61.68555096 -223.21899414 61.75537109 C-224.08940338 61.75491791 -224.95981262 61.75446472 -225.8565979 61.7539978 C-244.80690633 61.78282369 -262.84977307 63.98000526 -281.24755859 68.64868164 C-283.96899414 69.13037109 -283.96899414 69.13037109 -286.96899414 68.13037109 C-277.35728554 62.20712855 -267.52681434 56.20531924 -256.96899414 52.13037109 C-256.0009082 51.75267578 -255.03282227 51.37498047 -254.03540039 50.98583984 C-244.86690659 47.54115034 -235.60789846 44.90509064 -225.96899414 43.13037109 C-225.01420166 42.94579346 -224.05940918 42.76121582 -223.07568359 42.57104492 C-208.62024472 40.19627479 -193.90262696 41.03531844 -179.30859375 41.24682617 C-156.33853071 41.55442712 -134.24945714 39.90835662 -111.96899414 34.13037109 C-111.30528809 33.96875488 -110.64158203 33.80713867 -109.95776367 33.640625 C-97.73408386 30.61853442 -87.5851459 24.77689777 -76.96899414 18.13037109 C-76.07978271 17.57518799 -76.07978271 17.57518799 -75.17260742 17.00878906 C-72.89784787 15.5819636 -70.63606589 14.13846682 -68.39086914 12.66552734 C-62.70108039 9.05893544 -57.82626894 6.49590922 -51.21899414 5.00537109 C-50.51726074 4.83996826 -49.81552734 4.67456543 -49.0925293 4.50415039 C-47.05441731 4.03092553 -45.01316851 3.57659051 -42.96899414 3.13037109 C-41.98157227 2.91251953 -40.99415039 2.69466797 -39.97680664 2.47021484 C-26.81465637 -0.16612089 -13.36427563 -0.03140273 0 0 Z " fill="#DD575E" transform="translate(408.968994140625,91.86962890625)"/>
<path d="M0 0 C4.71882507 1.67579587 9.47062771 3.25670915 14.21777344 4.85009766 C15.77274536 5.37204712 15.77274536 5.37204712 17.35913086 5.90454102 C37.78429537 12.69027232 57.75380766 16.37838124 79.28027344 16.22509766 C80.17519501 16.22238861 81.07011658 16.21967957 81.99215698 16.21688843 C102.21840673 16.12426769 121.13324465 13.6764517 140.21777344 6.78759766 C140.87148926 6.55814453 141.52520508 6.32869141 142.19873047 6.09228516 C150.5293223 3.16461398 158.5838213 -0.15780063 166.52270508 -4.02832031 C171.02606246 -6.21240234 171.02606246 -6.21240234 173.21777344 -6.21240234 C163.73830724 16.24175224 131.22056664 35.33794993 111.21777344 46.78759766 C110.6096582 47.14515137 110.00154297 47.50270508 109.375 47.87109375 C85.29250656 61.99004578 57.68978016 70.51429309 30.21777344 74.78759766 C29.07719482 74.96548828 29.07719482 74.96548828 27.91357422 75.14697266 C-18.302611 81.96825016 -66.99709899 73.2448997 -108.78222656 52.78759766 C-109.42417969 52.4735498 -110.06613281 52.15950195 -110.72753906 51.8359375 C-130.82175395 41.8560175 -148.69356129 28.81607472 -164.94238281 13.41650391 C-167.7162961 10.77132748 -167.7162961 10.77132748 -170.65332031 8.56494141 C-171.35585937 7.97841797 -172.05839844 7.39189453 -172.78222656 6.78759766 C-172.78222656 6.12759766 -172.78222656 5.46759766 -172.78222656 4.78759766 C-173.44222656 4.78759766 -174.10222656 4.78759766 -174.78222656 4.78759766 C-174.78222656 4.12759766 -174.78222656 3.46759766 -174.78222656 2.78759766 C-175.44222656 2.78759766 -176.10222656 2.78759766 -176.78222656 2.78759766 C-179.78222656 -0.67394081 -179.78222656 -0.67394081 -179.78222656 -3.21240234 C-177.37697871 -3.24954903 -175.10988461 -3.15613806 -172.71972656 -2.96240234 C-171.40875 -2.87474609 -170.09777344 -2.78708984 -168.74707031 -2.69677734 C-164.89530721 -2.22621712 -161.49567101 -1.30831104 -157.78222656 -0.21240234 C-152.39857582 0.72557263 -147.16568009 0.97493624 -141.71972656 1.02587891 C-140.42899986 1.04050171 -140.42899986 1.04050171 -139.11219788 1.05541992 C-119.3126981 1.23362422 -100.26077936 1.19290897 -81.13769531 -4.59130859 C-55.15883847 -12.40644488 -25.35484582 -9.05530208 0 0 Z " fill="#4B428E" transform="translate(291.7822265625,407.21240234375)"/>
<path d="M0 0 C1.7946232 3.58924641 -0.55012555 7.37608752 -1.75585938 11.01489258 C-2.18955002 12.28139887 -2.62514945 13.54725289 -3.0625 14.8125 C-3.28252686 15.45271088 -3.50255371 16.09292175 -3.72924805 16.75253296 C-13.27521304 44.27653294 -27.44222869 77.58982469 -50 97 C-52.79296875 98.078125 -52.79296875 98.078125 -56 99 C-58.80043619 100.18415963 -61.5499153 101.480356 -64.3125 102.75 C-79.21665798 109.44582815 -93.89718341 114.15647824 -110 117 C-111.37212646 117.26707764 -111.37212646 117.26707764 -112.77197266 117.53955078 C-122.79125934 119.32625704 -132.73020571 119.39988955 -142.875 119.375 C-143.78451416 119.3737915 -144.69402832 119.37258301 -145.63110352 119.37133789 C-172.74998519 119.27359071 -195.89561631 112.7855065 -221.3125 103.6875 C-243.28795427 95.8488753 -265.83160298 94.50245385 -289 94 C-269.60324381 73.64015492 -235.50780825 64.79467259 -208.47741699 63.88092041 C-205.19983949 63.81972127 -201.92259473 63.77167249 -198.64460373 63.73963928 C-196.47585905 63.71828145 -194.30724438 63.69130386 -192.13858032 63.66296387 C-186.76664932 63.59381235 -181.39462826 63.53345393 -176.02258301 63.47393799 C-171.45184586 63.42307825 -166.88118939 63.36836561 -162.31056595 63.30812073 C-160.17169819 63.28153908 -158.03282254 63.26075033 -155.89389038 63.2401123 C-153.96520615 63.21503601 -153.96520615 63.21503601 -151.99755859 63.18945312 C-150.86047455 63.17692505 -149.7233905 63.16439697 -148.55184937 63.15148926 C-146.06597976 63.28730003 -146.06597976 63.28730003 -145 62 C-142.98421575 61.69384329 -140.96172619 61.43168512 -138.9375 61.1875 C-117.10431208 58.15695619 -91.64686016 50.55837969 -74 37 C-74.66 36.34 -75.32 35.68 -76 35 C-74.906875 34.75507813 -73.81375 34.51015625 -72.6875 34.2578125 C-47.24728544 28.23293955 -24.40317918 16.76270564 -3 2 C-1.515 1.01 -1.515 1.01 0 0 Z " fill="#5E84BF" transform="translate(515,305)"/>
<path d="M0 0 C8.54934201 3.01528605 17.29480292 5.23391223 26.10498047 7.34326172 C27.79764188 7.7524119 29.4872909 8.17440911 31.17236328 8.61376953 C48.09742699 13.02257739 65.39325048 12.81272381 82.7734375 12.98828125 C79.73309834 15.30736176 76.65870952 17.27769846 73.3359375 19.17578125 C67.78202812 22.38048202 62.32276787 25.70599835 56.87890625 29.09375 C55.85410156 29.71894531 54.82929688 30.34414062 53.7734375 30.98828125 C52.71769531 31.65472656 51.66195313 32.32117188 50.57421875 33.0078125 C45.91617707 35.63806317 40.89379725 37.02626799 35.7734375 38.48828125 C34.20686401 38.94001709 34.20686401 38.94001709 32.60864258 39.40087891 C13.99284076 44.59514166 -4.7884172 47.2294364 -24.1015625 46.98046875 C-26.57681873 46.96294031 -29.05207943 46.94603321 -31.52734375 46.9296875 C-35.36650406 46.89891952 -39.20543164 46.86353799 -43.04443359 46.81689453 C-58.08695864 46.644304 -72.47710825 46.85966591 -87.2265625 49.98828125 C-88.24121582 50.20323242 -89.25586914 50.41818359 -90.30126953 50.63964844 C-92.65062432 51.18006659 -94.96782308 51.7763413 -97.2890625 52.42578125 C-98.08159424 52.64258545 -98.87412598 52.85938965 -99.69067383 53.08276367 C-113.34182103 56.90058837 -125.79941171 63.39604472 -138.1640625 70.23828125 C-144.68394697 73.83245233 -151.31158902 76.65498541 -158.2890625 79.23828125 C-173.87861849 85.17542524 -188.71983386 93.38178062 -202.046875 103.38671875 C-204.2265625 104.98828125 -204.2265625 104.98828125 -206.2265625 105.98828125 C-199.14268067 75.06108986 -183.3937048 29.26255504 -157.2265625 8.98828125 C-155.9065625 8.98828125 -154.5865625 8.98828125 -153.2265625 8.98828125 C-151.07940253 8.28924609 -151.07940253 8.28924609 -148.8671875 7.265625 C-147.5829187 6.7099585 -147.5829187 6.7099585 -146.27270508 6.14306641 C-145.34997803 5.7413623 -144.42725098 5.3396582 -143.4765625 4.92578125 C-125.66270814 -2.56776015 -107.44066479 -7.79612442 -88.2265625 -10.01171875 C-87.48220947 -10.10308105 -86.73785645 -10.19444336 -85.97094727 -10.28857422 C-56.44778308 -13.62558184 -27.93482233 -9.92967252 0 0 Z " fill="#F5925A" transform="translate(266.2265625,87.01171875)"/>
<path d="M0 0 C0.66 0.33 1.32 0.66 2 1 C1.34 1.66 0.68 2.32 0 3 C0.6504982 2.99333817 1.3009964 2.98667633 1.97120667 2.97981262 C8.86820423 2.91237785 15.76510526 2.86776179 22.66235352 2.83520508 C25.2213116 2.82030786 27.78024505 2.79998326 30.33911133 2.77368164 C50.71651455 2.56978767 70.94835494 3.15531834 90.6875 8.75 C91.62625977 9.00749023 92.56501953 9.26498047 93.53222656 9.53027344 C109.55760134 14.02341958 124.25099751 19.60891216 138.78320312 27.7578125 C140.87263962 28.9286333 142.97283133 30.07675655 145.078125 31.21875 C152.67526571 35.37126525 160.11698263 39.7916397 167.5 44.3125 C168.34433594 44.8163623 169.18867188 45.32022461 170.05859375 45.83935547 C170.83332031 46.32162598 171.60804688 46.80389648 172.40625 47.30078125 C173.10041016 47.72528564 173.79457031 48.14979004 174.50976562 48.5871582 C175.00154297 49.053396 175.49332031 49.51963379 176 50 C176 51.32 176 52.64 176 54 C173.7265625 55.67578125 173.7265625 55.67578125 170.625 57.3125 C166.57769358 59.50772892 163.00584367 61.72611549 159.4375 64.625 C152.86625468 69.28745501 145.36895045 70.76655875 137.60839844 72.43261719 C135.92186452 72.79947462 134.23960127 73.18682342 132.56347656 73.59863281 C118.55087023 77.03844899 104.6634015 77.37174944 90.3125 77.375 C89.39822235 77.37690338 88.4839447 77.37880676 87.54196167 77.38076782 C62.74985267 77.37492633 62.74985267 77.37492633 56 74 C54.19762398 74.01875305 52.39524249 74.0389082 50.59301758 74.06884766 C45.77619972 74.05466289 41.55414782 73.96842544 37.3984375 71.37890625 C34.96917383 68.75402772 32.97775725 65.96503445 31 63 C29.95318694 61.52024574 28.90348565 60.04253224 27.8515625 58.56640625 C24.47301787 53.77226214 21.2157158 48.90449899 18 44 C17.59330078 43.38157227 17.18660156 42.76314453 16.76757812 42.12597656 C-3 11.80511921 -3 11.80511921 -3 2 C-2.01 1.34 -1.02 0.68 0 0 Z " fill="#93508D" transform="translate(71,332)"/>
<path d="M0 0 C2.62863642 1.47929539 4.85793149 3.04152524 6.9921875 5.17578125 C8.51735526 3.97511727 10.03812663 2.7620529 11.45703125 1.4375 C14.95383596 -1.43646418 19.11660747 -1.16044985 23.41796875 -1.09765625 C27.63158203 -0.65007973 29.65341489 0.51839081 32.9921875 3.17578125 C35.62515998 8.20399748 36.52909223 12.61540052 36.70703125 18.296875 C36.73124649 19.04163589 36.75546173 19.78639679 36.78041077 20.5537262 C36.82159399 22.1123522 36.85391012 23.67123589 36.87768555 25.23022461 C36.91264446 26.83226171 36.97462991 28.43391471 37.06225586 30.03393555 C37.33178661 34.96328659 37.55132249 39.45235693 35.9921875 44.17578125 C32.56483085 46.14659668 30.60795081 46.21560092 26.71069336 45.67797852 C23.9921875 44.17578125 23.9921875 44.17578125 22.92797852 41.36303711 C22.60321833 37.33878741 22.63610536 33.45347824 22.8046875 29.42578125 C22.82522443 28.0143929 22.84027141 26.60291312 22.84960938 25.19140625 C22.8671074 22.58456723 22.92330374 19.99054173 23.00708008 17.38378906 C23.05708448 13.65488239 23.05708448 13.65488239 21.9921875 10.17578125 C17.43149143 9.56768844 15.32317266 9.34416458 11.3828125 11.80615234 C8.73369282 13.98112215 8.73369282 13.98112215 8.44042969 17.16845703 C8.47297852 18.30782715 8.50552734 19.44719727 8.5390625 20.62109375 C8.5596875 21.86246094 8.5803125 23.10382813 8.6015625 24.3828125 C8.64796875 25.67574219 8.694375 26.96867187 8.7421875 28.30078125 C8.80319884 30.86579964 8.86067668 33.43090532 8.9140625 35.99609375 C8.95112305 37.13320801 8.98818359 38.27032227 9.02636719 39.44189453 C8.9921875 42.17578125 8.9921875 42.17578125 7.9921875 44.17578125 C5.5234375 44.40625 5.5234375 44.40625 2.4921875 44.36328125 C1.491875 44.35683594 0.4915625 44.35039062 -0.5390625 44.34375 C-3.0078125 44.17578125 -3.0078125 44.17578125 -4.0078125 43.17578125 C-4.1298878 40.99316556 -4.18760178 38.80689874 -4.21875 36.62109375 C-4.24682163 35.27082127 -4.27548612 33.92056102 -4.3046875 32.5703125 C-4.34594837 30.43506245 -4.38282165 28.30003974 -4.40917969 26.16455078 C-4.43678554 24.1079149 -4.48265779 22.05232648 -4.53125 19.99609375 C-4.55106934 18.76133301 -4.57088867 17.52657227 -4.59130859 16.25439453 C-4.75467606 13.20053951 -4.75467606 13.20053951 -6.41430664 11.25854492 C-8.51417041 9.83171854 -9.58998025 9.96920977 -12.0703125 10.36328125 C-13.10865234 10.50830078 -13.10865234 10.50830078 -14.16796875 10.65625 C-16.23617038 11.07857955 -16.23617038 11.07857955 -18.0078125 13.17578125 C-18.36442947 16.2673605 -18.36442947 16.2673605 -18.38671875 19.8984375 C-18.40371323 20.55911728 -18.4207077 21.21979706 -18.43821716 21.90049744 C-18.49139736 24.01299473 -18.53167086 26.12547185 -18.5703125 28.23828125 C-18.61419683 30.35456133 -18.66085473 32.47068664 -18.71311951 34.58677673 C-18.75973672 36.50440542 -18.79718633 38.42225035 -18.83422852 40.34008789 C-19.0078125 43.17578125 -19.0078125 43.17578125 -20.0078125 44.17578125 C-21.83897133 44.27429296 -23.67401183 44.30550754 -25.5078125 44.30078125 C-26.508125 44.30335938 -27.5084375 44.3059375 -28.5390625 44.30859375 C-31.0078125 44.17578125 -31.0078125 44.17578125 -32.0078125 43.17578125 C-32.15731098 41.82704237 -32.24078947 40.47086978 -32.29589844 39.11499023 C-32.34904205 37.82376503 -32.34904205 37.82376503 -32.40325928 36.50645447 C-32.526413 32.58094023 -32.61764002 28.6555766 -32.6875 24.72875977 C-32.73442882 22.64938954 -32.80284679 20.57039486 -32.89257812 18.49243164 C-33.48456118 4.55763648 -33.48456118 4.55763648 -32.0078125 0.17578125 C-28.8784421 -1.72886166 -27.16309528 -1.4996977 -23.58300781 -0.96850586 C-20.56657514 0.37184491 -20.34221647 1.30681272 -19.0078125 4.17578125 C-15.96631177 2.50992772 -15.96631177 2.50992772 -13.0078125 0.17578125 C-8.62661472 -1.28461801 -4.32138375 -1.77395325 0 0 Z " fill="#4E3365" transform="translate(169.0078125,228.82421875)"/>
<path d="M0 0 C2.162776 1.21334818 4.23807735 2.47294931 6.27734375 3.8828125 C6.27734375 2.5628125 6.27734375 1.2428125 6.27734375 -0.1171875 C9.69285133 -1.28627273 12.8529011 -1.22324944 16.27734375 -0.1171875 C17.90297248 2.99947344 17.50696554 6.25708901 17.359375 9.69921875 C17.35234055 10.7036351 17.34530609 11.70805145 17.33805847 12.74290466 C17.31409591 14.87952668 17.26612612 17.01598855 17.1965332 19.15161133 C17.09106549 22.40759506 17.05329456 25.65851563 17.02929688 28.91601562 C16.9974926 30.98964859 16.96180605 33.06322635 16.921875 35.13671875 C16.90598831 36.1067836 16.89010162 37.07684845 16.87373352 38.0763092 C16.62887493 45.10819401 15.60938017 50.10957999 10.96484375 55.6328125 C3.69709799 61.71743686 -3.56335922 62.54565636 -12.72265625 61.8828125 C-19.7308344 60.68652402 -19.7308344 60.68652402 -22.72265625 58.8828125 C-23.68910768 55.93608313 -23.74144938 54.03002538 -23.34765625 50.9453125 C-22.54328125 49.924375 -22.54328125 49.924375 -21.72265625 48.8828125 C-19.4489153 49.04835253 -17.42399684 49.63675606 -15.23046875 50.25390625 C-10.18428278 51.51938279 -5.34447152 51.05657842 -0.22265625 50.5078125 C2.49728225 49.14429948 2.49728225 49.14429948 2.86328125 46.5234375 C3.13087089 43.96325552 3.26784848 41.45603029 3.27734375 38.8828125 C2.79265625 39.1715625 2.30796875 39.4603125 1.80859375 39.7578125 C-3.11055098 42.48226189 -7.09903421 43.95293864 -12.72265625 42.8828125 C-18.61295842 40.93759212 -22.25992092 37.97507035 -25.72265625 32.8828125 C-28.80440106 26.71932287 -28.74787352 18.91615228 -27.0703125 12.31640625 C-24.91109492 6.83959256 -21.65722796 3.08856674 -16.72265625 -0.1171875 C-11.26375453 -1.93682141 -5.37532602 -2.20565745 0 0 Z M-13.55859375 12.1953125 C-15.82295132 15.47787113 -15.90126468 18.99464433 -15.72265625 22.8828125 C-15.00217284 26.70137458 -14.16316233 28.40454875 -11.53515625 31.2578125 C-7.87894037 33.37029279 -5.8893516 33.54071177 -1.72265625 32.8828125 C2.14450719 31.18502436 2.14450719 31.18502436 4.27734375 27.8828125 C5.1165453 22.79128092 5.43332669 17.95440433 4.27734375 12.8828125 C1.02764456 10.09094386 -0.99026996 9.00051744 -5.22265625 8.3203125 C-8.75242856 8.88759734 -10.93013249 9.72146661 -13.55859375 12.1953125 Z " fill="#4C3163" transform="translate(312.72265625,229.1171875)"/>
<path d="M0 0 C4.16102367 -1.47936156 7.85502004 -1.53866926 12 0 C14.0338218 4.38276033 13.66266017 9.03860432 13.55859375 13.78125 C13.56413109 15.1937447 13.57337529 16.6062294 13.5861969 18.01867676 C13.59941668 20.9862608 13.56952623 23.94952208 13.50952148 26.91650391 C13.4354989 30.73319784 13.46447031 34.54081029 13.52519131 38.35746002 C13.56095664 41.27655296 13.54413951 44.19348188 13.51091194 47.11253357 C13.50101526 48.51922063 13.50737728 49.92611392 13.52981377 51.33265686 C13.62284859 59.24409277 13.62284859 59.24409277 12 63 C8.19151493 64.44151578 4.85826157 64.22369977 1 63 C0.67 62.01 0.34 61.02 0 60 C-1.64571556 60.96000075 -3.28764737 61.92705902 -4.91015625 62.92578125 C-9.78135595 65.42966895 -14.99388586 65.59574785 -20.1875 64 C-25.81084155 61.53066838 -29.02492337 57.30472657 -31.375 51.75 C-32.86742199 42.79546806 -32.7859826 34.13543989 -27.8984375 26.21484375 C-25.1117596 22.55620535 -22.33360797 20.44453599 -18 19 C-11.05920772 18.24396816 -6.25756363 19.06894789 0 22 C-0.0628418 21.33355469 -0.12568359 20.66710937 -0.19042969 19.98046875 C-0.43837892 16.98833875 -0.59529491 13.99833204 -0.75 11 C-0.90082031 9.42605469 -0.90082031 9.42605469 -1.0546875 7.8203125 C-1.17387233 4.76123515 -1.18954272 2.81883904 0 0 Z M-18 33 C-20.62808687 37.9133798 -20.2083119 42.70876319 -19 48 C-17.25631835 51.74670186 -17.25631835 51.74670186 -14 54 C-11.96048644 54.27374623 -11.96048644 54.27374623 -9.6875 54.3125 C-8.92824219 54.34988281 -8.16898437 54.38726562 -7.38671875 54.42578125 C-3.88639585 53.80133739 -2.3805181 52.63349999 0 50 C0.48722793 47.09478997 0.65912572 44.88310243 0.5625 42 C0.57345703 41.2884375 0.58441406 40.576875 0.59570312 39.84375 C0.54759965 36.40595496 0.26266322 34.35708464 -1.79296875 31.5625 C-7.50732756 27.51693624 -12.90070089 28.26493654 -18 33 Z " fill="#4C3163" transform="translate(516,209)"/>
<path d="M0 0 C4.78669487 3.42053517 8.02101096 7.70658919 9.8203125 13.30078125 C10.6575094 20.90369725 10.68939837 28.09881713 5.8203125 34.30078125 C0.00917146 40.53230271 -4.99279451 43.28713961 -13.5546875 43.67578125 C-20.07148676 43.51683493 -24.41301059 41.91982915 -29.15625 37.4296875 C-35.2810309 30.76300212 -36.6614177 25.55080835 -36.48828125 16.52734375 C-35.89222517 10.29516247 -33.47575231 6.26330816 -28.9921875 1.98828125 C-20.24132246 -4.82622217 -9.67231304 -5.38438479 0 0 Z M-20.1796875 9.30078125 C-24.03959669 13.71210603 -24.56550013 17.51359184 -24.1796875 23.30078125 C-23.01197949 26.80390528 -21.92062715 29.45007277 -19.4921875 32.23828125 C-16.05548402 33.81730717 -12.84593767 33.94219281 -9.1796875 33.30078125 C-5.59409916 31.35209193 -4.44628045 29.90667432 -2.8046875 26.17578125 C-1.79578264 19.92057113 -1.60595886 14.56880194 -5.3046875 9.23828125 C-10.64378808 5.64019173 -15.08528894 5.19696019 -20.1796875 9.30078125 Z " fill="#4D3264" transform="translate(74.1796875,230.69921875)"/>
<path d="M0 0 C4.63017017 4.33178142 7.627916 8.62095813 8.3359375 15.05078125 C8.43443951 23.27569911 7.86703604 28.85322093 2.1640625 34.96875 C-3.85670099 40.59735648 -9.19002391 42.52695881 -17.4140625 42.3046875 C-25.00051066 41.41081596 -29.77103568 37.82782282 -34.58984375 32.09765625 C-38.63262827 26.08387428 -38.83359725 20.0460904 -38 13 C-35.77254199 5.59240708 -31.74307266 0.72165741 -25 -3 C-16.68280614 -6.5425085 -7.32898506 -5.2372361 0 0 Z M-23 8 C-26.3322856 13.15966802 -26.33097142 17.44225338 -25.5859375 23.46875 C-24.81716507 26.78984688 -23.51126972 28.71702753 -21 31 C-17.78892113 32.60553944 -14.48329272 32.47469056 -11 32 C-7.62332934 30.09144702 -6.32438936 28.69512005 -4.6875 25.1875 C-3.28541966 18.68694569 -3.63509947 13.83249426 -7 8 C-12.80718717 4.16972761 -17.19281283 4.16972761 -23 8 Z " fill="#4C3163" transform="translate(425,232)"/>
<path d="M0 0 C3.46475511 2.5331936 5.31362703 5.1830686 6.65625 9.2109375 C7.04174078 13.98307131 7.18127076 18.7505955 7.28100586 23.53637695 C7.32299495 25.11709481 7.38467861 26.69740659 7.46557617 28.27661133 C7.70673695 33.06352846 7.92814206 37.56167142 6.65625 42.2109375 C3.82469317 43.67579129 2.05885701 43.52288204 -1.08276367 43.17504883 C-1.82888916 42.85689209 -2.57501465 42.53873535 -3.34375 42.2109375 C-3.9699707 40.02612305 -3.9699707 40.02612305 -4.34375 38.2109375 C-5.99911514 39.14208039 -7.64683863 40.08933995 -9.25390625 41.1015625 C-13.47622148 43.34294105 -17.88977624 43.66184434 -22.5546875 42.8046875 C-26.23289875 41.65610109 -28.15273503 40.41150322 -30.84375 37.5859375 C-32.76387512 33.26565597 -33.16085247 29.86341893 -32.34375 25.2109375 C-29.95658382 20.25297696 -27.43862601 18.18650167 -22.34375 16.2109375 C-16.82237119 14.61264363 -10.86568138 14.66135319 -5.34375 16.2109375 C-5.81563019 13.14713571 -6.43776465 10.69251957 -8.34375 8.2109375 C-13.40477398 7.01768794 -18.38202226 7.9493016 -23.34375 9.2109375 C-24.33375 9.2109375 -25.32375 9.2109375 -26.34375 9.2109375 C-28.39401369 6.7410292 -29.38134635 4.43795774 -29.34375 1.2109375 C-26.68257863 -0.50773567 -25.31435036 -1.12832235 -22.34375 -1.7890625 C-21.54582031 -1.96953125 -20.74789062 -2.15 -19.92578125 -2.3359375 C-12.8679484 -3.57452844 -6.31536225 -3.64945113 0 0 Z M-20.34375 26.2109375 C-21.09375 28.7109375 -21.09375 28.7109375 -20.34375 31.2109375 C-18.40024286 33.36257226 -18.40024286 33.36257226 -15.34375 34.2109375 C-11.3319207 33.82739741 -8.22154794 33.08873544 -5.34375 30.2109375 C-4.9269948 27.16882319 -4.9269948 27.16882319 -5.34375 24.2109375 C-10.48444351 22.497373 -16.58991262 21.67505067 -20.34375 26.2109375 Z " fill="#4E3365" transform="translate(121.34375,230.7890625)"/>
<path d="M0 0 C3.77663228 2.96670391 5.74053262 6.64836884 6.62109375 11.2734375 C6.99332446 15.78560814 7.14479248 20.29510555 7.24584961 24.81982422 C7.28790239 26.29674409 7.34964539 27.7732263 7.43041992 29.24853516 C7.66994012 33.70015392 7.88789892 37.95078802 6.62109375 42.2734375 C3.80638245 43.64550955 1.97441351 43.51000339 -1.11791992 43.20019531 C-1.86404541 42.89436523 -2.6101709 42.58853516 -3.37890625 42.2734375 C-3.75606392 40.95183204 -4.09954988 39.61911536 -4.37890625 38.2734375 C-6.05869059 39.19903295 -7.73022208 40.14344075 -9.3515625 41.16796875 C-13.84731443 43.61940959 -18.12272378 43.48634978 -23.06640625 42.6484375 C-27.3449303 40.87244638 -30.28598726 38.45927547 -32.37890625 34.2734375 C-32.94535736 29.63039563 -32.80013939 26.14830633 -30.75390625 21.8984375 C-26.72218019 17.44231923 -21.83966695 15.45932354 -15.90625 15.140625 C-15.05160156 15.14320313 -14.19695312 15.14578125 -13.31640625 15.1484375 C-12.45917969 15.14585937 -11.60195313 15.14328125 -10.71875 15.140625 C-8.37890625 15.2734375 -8.37890625 15.2734375 -5.37890625 16.2734375 C-5.83804303 12.78744418 -5.83804303 12.78744418 -7.37890625 9.2734375 C-12.97973035 6.47302545 -16.68936359 7.59455606 -22.37890625 9.2734375 C-23.69890625 9.2734375 -25.01890625 9.2734375 -26.37890625 9.2734375 C-28.27402238 6.86303299 -29.25755512 4.34362121 -29.37890625 1.2734375 C-26.73689126 -0.39804137 -25.30035346 -1.04545438 -22.37890625 -1.7265625 C-21.75628906 -1.90703125 -21.13367188 -2.0875 -20.4921875 -2.2734375 C-13.53804628 -3.76452878 -6.21376968 -3.6430001 0 0 Z M-20.37890625 26.2734375 C-21.12890625 28.7734375 -21.12890625 28.7734375 -20.37890625 31.2734375 C-17.58322136 33.74021828 -16.05126311 34.30088064 -12.31640625 34.1484375 C-9.25251078 33.23578779 -7.51600306 32.6571224 -5.37890625 30.2734375 C-4.79508665 27.188363 -4.79508665 27.188363 -5.37890625 24.2734375 C-10.51959976 22.559873 -16.62506887 21.73755067 -20.37890625 26.2734375 Z " fill="#4E3365" transform="translate(470.37890625,230.7265625)"/>
<path d="M0 0 C4.03914077 2.35616545 5.85416452 5.15076111 7.34887695 9.53759766 C8.25898381 13.35013415 8.49371056 16.61165098 8.48046875 20.5234375 C8.48001053 21.17704254 8.47955231 21.83064758 8.4790802 22.50405884 C8.47608415 23.8704004 8.46827845 25.23673938 8.45581055 26.60302734 C8.43736454 28.70292087 8.43530252 30.80237703 8.43554688 32.90234375 C8.39037187 43.17212813 8.39037187 43.17212813 7.25 44.3125 C3.38415848 45.18875231 0.04249768 45.6136792 -3.75 44.3125 C-5.4366648 40.0519011 -5.00429194 35.70731961 -4.8125 31.1875 C-4.77533108 28.72666097 -4.74514942 26.26570443 -4.72265625 23.8046875 C-4.68406494 22.70495605 -4.64547363 21.60522461 -4.60571289 20.47216797 C-4.76314964 17.02454292 -5.32594204 14.45598465 -6.75 11.3125 C-10.75495745 10.02789101 -12.80686641 9.86143611 -16.625 11.6875 C-18.6219664 13.14041182 -18.6219664 13.14041182 -19.75 14.3125 C-19.77381661 16.53254805 -19.73883308 18.75326841 -19.6796875 20.97265625 C-19.66879349 22.33656741 -19.66107685 23.700507 -19.65625 25.06445312 C-19.64835111 27.22899484 -19.62458263 29.38676685 -19.54785156 31.55004883 C-19.40186401 35.94717404 -19.27700071 40.10968859 -20.75 44.3125 C-24.5616493 45.79514036 -27.84222658 45.30008966 -31.75 44.3125 C-33.27296438 42.78953562 -32.95169527 41.37723131 -33.03808594 39.25170898 C-33.09122955 37.96048378 -33.09122955 37.96048378 -33.14544678 36.64317322 C-33.2686005 32.71765898 -33.35982752 28.79229535 -33.4296875 24.86547852 C-33.47661632 22.78610829 -33.54503429 20.70711361 -33.63476562 18.62915039 C-34.22674868 4.69435523 -34.22674868 4.69435523 -32.75 0.3125 C-29.6206296 -1.59214291 -27.90528278 -1.36297895 -24.32519531 -0.83178711 C-21.30876264 0.50856366 -21.08440397 1.44353147 -19.75 4.3125 C-16.70849927 2.64664647 -16.70849927 2.64664647 -13.75 0.3125 C-9.12528578 -1.22907141 -4.68271184 -1.17067796 0 0 Z " fill="#4D3264" transform="translate(269.75,228.6875)"/>
<path d="M0 0 C1.703125 1.1953125 1.703125 1.1953125 2.15625 3.140625 C1.94542962 5.4028898 1.68058838 7.13895087 0.703125 9.1953125 C-3.12095706 10.47000652 -4.53426339 9.44951637 -8.296875 8.1953125 C-12.53253426 7.72016104 -12.53253426 7.72016104 -16.171875 9.5703125 C-17.48661166 11.13997264 -17.48661166 11.13997264 -17.296875 13.1953125 C-15.26632607 13.97658675 -15.26632607 13.97658675 -12.734375 14.5703125 C-6.02057204 16.46954955 0.08611899 18.82938193 3.703125 25.1953125 C4.38460019 30.47674522 3.97629101 34.23532384 1.0078125 38.71875 C-2.24793882 42.40340269 -5.69303535 43.05006682 -10.359375 43.47265625 C-16.82611188 43.65977248 -22.75077655 43.74481551 -28.296875 40.1953125 C-28.83624243 37.30708691 -28.51357353 34.86845311 -27.296875 32.1953125 C-24.296875 31.1953125 -24.296875 31.1953125 -21.671875 32.1328125 C-17.5219552 33.43926873 -13.60621599 34.08383642 -9.296875 33.1953125 C-8.760625 32.4321875 -8.224375 31.6690625 -7.671875 30.8828125 C-7.878125 29.9959375 -8.084375 29.1090625 -8.296875 28.1953125 C-10.3874838 27.13310942 -12.48044395 26.56409746 -14.73828125 25.93359375 C-19.57507131 24.53793982 -23.86830875 22.75780683 -27.296875 19.0078125 C-28.73504857 14.96294934 -29.06638675 11.43136264 -28.296875 7.1953125 C-25.32992528 2.0270775 -22.24247805 0.24087572 -16.5546875 -1.3359375 C-10.78846569 -2.53307698 -5.52333269 -1.93504513 0 0 Z " fill="#4C3163" transform="translate(564.296875,229.8046875)"/>
<path d="M0 0 C1.20462891 0.17015625 1.20462891 0.17015625 2.43359375 0.34375 C3.79148046 4.06372802 3.61203213 7.59164667 2.43359375 11.34375 C-0.08226082 12.86336289 -2.19439209 13.31392953 -5.0859375 13.78125 C-8.01320189 14.44507059 -8.81389059 14.93033068 -10.56640625 17.34375 C-10.91059658 20.34985777 -10.91059658 20.34985777 -10.7265625 23.76171875 C-10.71689453 25.01533203 -10.70722656 26.26894531 -10.69726562 27.56054688 C-10.66291385 29.55589444 -10.62810636 31.55155738 -10.54956055 33.5456543 C-10.26728339 41.45814485 -10.26728339 41.45814485 -11.56640625 45.34375 C-15.03109098 46.74472421 -18.00242088 46.22835894 -21.56640625 45.34375 C-22.22640625 45.01375 -22.88640625 44.68375 -23.56640625 44.34375 C-23.88093567 42.59104919 -23.88093567 42.59104919 -23.96801758 40.28295898 C-24.00337112 39.42214218 -24.03872467 38.56132538 -24.07514954 37.67442322 C-24.17665133 33.74860927 -24.26757922 29.82351836 -24.3215332 25.89672852 C-24.35982514 23.8173948 -24.42141152 21.73836147 -24.50610352 19.66040039 C-25.07020609 5.73225512 -25.07020609 5.73225512 -23.56640625 1.34375 C-20.4077561 -0.59288138 -18.67011049 -0.38860723 -15.04174805 0.10180664 C-14.22488525 0.51164795 -13.40802246 0.92148926 -12.56640625 1.34375 C-11.72192383 3.94702148 -11.72192383 3.94702148 -11.56640625 6.34375 C-10.82390625 5.539375 -10.08140625 4.735 -9.31640625 3.90625 C-5.92121504 0.7425491 -4.38657132 0.58754684 0 0 Z " fill="#4D3264" transform="translate(380.56640625,227.65625)"/>
<path d="M0 0 C1.20462891 0.17015625 1.20462891 0.17015625 2.43359375 0.34375 C3.79148046 4.06372802 3.61203213 7.59164667 2.43359375 11.34375 C-0.08226082 12.86336289 -2.19439209 13.31392953 -5.0859375 13.78125 C-8.01282472 14.44498505 -8.81585962 14.92912667 -10.56640625 17.34375 C-10.89425439 20.35059184 -10.89425439 20.35059184 -10.69140625 23.76171875 C-10.67722656 25.01533203 -10.66304687 26.26894531 -10.6484375 27.56054688 C-10.60721313 29.55600288 -10.56546188 31.55186369 -10.47412109 33.5456543 C-10.14183835 41.47088922 -10.14183835 41.47088922 -11.56640625 45.34375 C-15.36428627 46.71711724 -18.68585266 46.26054614 -22.56640625 45.34375 C-24.08937063 43.82078562 -23.76810152 42.40848131 -23.85449219 40.28295898 C-23.9076358 38.99173378 -23.9076358 38.99173378 -23.96185303 37.67442322 C-24.08500675 33.74890898 -24.17623377 29.82354535 -24.24609375 25.89672852 C-24.29302257 23.81735829 -24.36144054 21.73836361 -24.45117188 19.66040039 C-25.04395504 5.7067713 -25.04395504 5.7067713 -23.56640625 1.34375 C-20.41008992 -0.59489797 -18.67131236 -0.3881969 -15.04394531 0.10180664 C-14.22635742 0.51164795 -13.40876953 0.92148926 -12.56640625 1.34375 C-11.72167969 3.94702148 -11.72167969 3.94702148 -11.56640625 6.34375 C-10.82390625 5.539375 -10.08140625 4.735 -9.31640625 3.90625 C-5.92121504 0.7425491 -4.38657132 0.58754684 0 0 Z " fill="#482C60" transform="translate(31.56640625,227.65625)"/>
<path d="M0 0 C3.29101562 -0.58618164 3.29101562 -0.58618164 6.57714844 0.01586914 C9.53633289 2.33298661 9.7440514 2.72450388 10.32519531 6.22973633 C10.70246222 10.97170973 10.59311798 15.69601364 10.40039062 20.4453125 C10.27600997 23.55069902 10.23658469 26.64798991 10.21289062 29.75561523 C10.17619981 31.71209509 10.13469303 33.66849178 10.08789062 35.62475586 C10.07089111 36.56016708 10.0538916 37.49557831 10.03637695 38.45933533 C9.99794678 39.32015213 9.9595166 40.18096893 9.91992188 41.06787109 C9.89260986 41.82954086 9.86529785 42.59121063 9.8371582 43.3759613 C9.6517749 43.95435257 9.4663916 44.53274384 9.27539062 45.12866211 C7.49603271 45.84095764 7.49603271 45.84095764 5.27539062 46.12866211 C4.5829425 46.27255371 3.89049438 46.41644531 3.17706299 46.56469727 C1.10058594 46.79272461 1.10058594 46.79272461 -2.72460938 46.12866211 C-4.13231613 43.04643267 -3.94039105 39.84502372 -3.92773438 36.50366211 C-3.94487488 35.52703613 -3.96201538 34.55041016 -3.97967529 33.54418945 C-4.00271668 31.47286422 -4.00459822 29.40121518 -3.98730469 27.32983398 C-3.9746442 24.13744226 -4.0683057 20.95983781 -4.16992188 17.76928711 C-4.34444029 3.3941913 -4.34444029 3.3941913 0 0 Z " fill="#4C3263" transform="translate(217.724609375,226.871337890625)"/>
<path d="M0 0 C2.12064392 1.46251305 2.82274986 2.57732658 3.8125 4.9375 C4.05160495 7.56765449 3.433564 8.81192864 2 11 C-1.0832635 12.54163175 -3.60878099 12.29747535 -7 12 C-9 10.375 -9 10.375 -10 8 C-9.875 4.875 -9.875 4.875 -9 2 C-5.53076119 -0.31282587 -4.07794425 -0.42478586 0 0 Z " fill="#503667" transform="translate(224,209)"/>
<path d="M0 0 C3.28831723 -0.11758922 5.50815507 -0.00149638 8.46289062 1.47998047 C8.29980469 3.5793457 8.29980469 3.5793457 7.46289062 5.47998047 C7.46289062 4.48998047 7.46289062 3.49998047 7.46289062 2.47998047 C3.34131068 1.62447506 3.34131068 1.62447506 -0.53710938 2.47998047 C-1.48923602 5.83878695 -1.7077556 8.02825462 -1.66992188 11.44873047 C-1.68231903 12.35876831 -1.69471619 13.26880615 -1.70748901 14.2064209 C-1.72174047 16.13659362 -1.71524001 18.06701077 -1.68994141 19.99707031 C-1.66219148 22.97118105 -1.73018112 25.93272026 -1.80664062 28.90576172 C-1.80854284 30.77425442 -1.80482622 32.64276305 -1.79492188 34.51123047 C-1.8346965 35.8564679 -1.8346965 35.8564679 -1.87527466 37.22888184 C-1.91100132 39.98437477 -1.91100132 39.98437477 -0.53710938 43.47998047 C2.22742322 44.0545464 4.51818687 43.91817581 7.3196106 43.59997559 C8.02689301 43.5603772 8.73417542 43.52077881 9.46289062 43.47998047 C9.46289062 44.13998047 9.46289062 44.79998047 9.46289062 45.47998047 C7.09179687 45.71044922 7.09179687 45.71044922 4.02539062 45.66748047 C3.01605469 45.66103516 2.00671875 45.65458984 0.96679688 45.64794922 C-1.53710937 45.47998047 -1.53710937 45.47998047 -2.53710938 44.47998047 C-2.68660786 43.13124159 -2.77008635 41.775069 -2.82519531 40.41918945 C-2.87833893 39.12796425 -2.87833893 39.12796425 -2.93255615 37.81065369 C-3.05570987 33.88513945 -3.1469369 29.95977582 -3.21679688 26.03295898 C-3.26372569 23.95358876 -3.33214366 21.87459407 -3.421875 19.79663086 C-4.15979719 2.42654836 -4.15979719 2.42654836 0 0 Z " fill="#6A547D" transform="translate(10.537109375,227.52001953125)"/>
<path d="M0 0 C0.66 0 1.32 0 2 0 C2.24291992 2.73803711 2.24291992 2.73803711 2.23046875 6.52734375 C2.22978142 7.52260826 2.22978142 7.52260826 2.2290802 8.53797913 C2.22604942 9.94615458 2.21813864 11.35432643 2.20581055 12.76245117 C2.18760997 14.9244366 2.18530032 17.08599303 2.18554688 19.24804688 C2.14731752 29.85268248 2.14731752 29.85268248 1 31 C-0.85203129 31.09823567 -2.70787128 31.12973724 -4.5625 31.125 C-5.57441406 31.12757813 -6.58632812 31.13015625 -7.62890625 31.1328125 C-8.41136719 31.08898437 -9.19382813 31.04515625 -10 31 C-10 30.67 -10 30.34 -10 30 C-8.92588867 30.09680054 -8.92588867 30.09680054 -7.83007812 30.19555664 C-4.74088127 30.36343606 -2.79801269 30.35853423 0 29 C1.36032419 24.20117163 0.8394699 19.36268065 0.5 14.4375 C0.36911905 11.72832726 0.26342901 9.01888299 0.15625 6.30859375 C0.08212891 5.10001709 0.00800781 3.89144043 -0.06835938 2.64624023 C-0.03452148 1.33635132 -0.03452148 1.33635132 0 0 Z " fill="#7D698E" transform="translate(148,242)"/>
<path d="M0 0 C0.66 0.33 1.32 0.66 2 1 C1.34 1.66 0.68 2.32 0 3 C1.40765625 3.09087891 1.40765625 3.09087891 2.84375 3.18359375 C4.65359375 3.30927734 4.65359375 3.30927734 6.5 3.4375 C7.7065625 3.51871094 8.913125 3.59992188 10.15625 3.68359375 C11.56390625 3.84021484 11.56390625 3.84021484 13 4 C13 4.33 13 4.66 13 5 C11.61712724 5.09001061 10.22951905 5.10677315 8.84375 5.09765625 C7.98652344 5.09443359 7.12929687 5.09121094 6.24609375 5.08789062 C5.33988281 5.07951172 4.43367187 5.07113281 3.5 5.0625 C2.59378906 5.05798828 1.68757812 5.05347656 0.75390625 5.04882812 C-1.49745983 5.03697883 -3.74869854 5.02048357 -6 5 C-4.06745228 2.9754262 -2.36841312 1.57894208 0 0 Z " fill="#6F70AB" transform="translate(232,394)"/>
<path d="M0 0 C0.66 0.33 1.32 0.66 2 1 C0.55088594 2.5296204 -0.90955655 4.04851663 -2.375 5.5625 C-3.59316406 6.83287109 -3.59316406 6.83287109 -4.8359375 8.12890625 C-5.55007812 8.74636719 -6.26421875 9.36382812 -7 10 C-7.66 9.67 -8.32 9.34 -9 9 C-7.98828125 7.44140625 -7.98828125 7.44140625 -6.3125 5.5625 C-5.77238281 4.94503906 -5.23226562 4.32757813 -4.67578125 3.69140625 C-3 2 -3 2 0 0 Z " fill="#654E79" transform="translate(49,230)"/>
<path d="M0 0 C0.66 0.33 1.32 0.66 2 1 C-0.97 3.97 -3.94 6.94 -7 10 C-7.33 9.34 -7.66 8.68 -8 8 C-5.44878308 4.59837744 -3.54428484 2.36285656 0 0 Z " fill="#67517B" transform="translate(398,230)"/>
</svg>
